                                                                        S      1
,,11HLagerhalter,11HLagerhalter,7Hunknown,7Hunknown,32,38,7,99,15,,1.,  G      1
10,2HCM,1,0.08,15H20260416.151154,0.001,10000.,7Hunknown,7Hunknown,11,0,G      2
15H20260415.105020;                                                     G      3
     186       1                                                00000000D      1
     186            -179       1       0                               0D      2
     514       2                                                00010000D      3
     514                       2       1                               0D      4
     510       4                                                00010000D      5
     510            -179       1       1                               0D      6
     510       5                                                00010000D      7
     510            -179       1       1                               0D      8
     510       6                                                00010000D      9
     510            -179       1       1                               0D     10
     510       7                                                00010000D     11
     510            -179       1       1                               0D     12
     510       8                                                00010000D     13
     510            -179       1       1                               0D     14
     510       9                                                00010000D     15
     510            -179       1       1                               0D     16
     510      10                                                00010000D     17
     510            -179       1       1                               0D     18
     510      11                                                00010000D     19
     510            -179       1       1                               0D     20
     510      12                                                00010000D     21
     510            -179       1       1                               0D     22
     510      13                                                00010000D     23
     510            -179       1       1                               0D     24
     510      14                                                00010000D     25
     510            -179       1       1                               0D     26
     510      15                                                00010000D     27
     510            -179       1       1                               0D     28
     510      16                                                00010000D     29
     510            -179       1       1                               0D     30
     510      17                                                00010000D     31
     510            -179       1       1                               0D     32
     508      18                                                00010000D     33
     508                       2       1                               0D     34
     508      20                                                00010000D     35
     508                       2       1                               0D     36
     508      22                                                00010000D     37
     508                       1       1                               0D     38
     508      23                                                00010000D     39
     508                       2       1                               0D     40
     508      25                                                00010000D     41
     508                       1       1                               0D     42
     508      26                                                00010000D     43
     508                       2       1                               0D     44
     508      28                                                00010000D     45
     508                       1       1                               0D     46
     508      29                                                00010000D     47
     508                       1       1                               0D     48
     508      30                                                00010000D     49
     508                       2       1                               0D     50
     508      32                                                00010000D     51
     508                       2       1                               0D     52
     508      34                                                00010000D     53
     508                       1       1                               0D     54
     508      35                                                00010000D     55
     508                       1       1                               0D     56
     508      36                                                00010000D     57
     508                       1       1                               0D     58
     508      37                                                00010000D     59
     508                       2       1                               0D     60
     508      39                                                00010000D     61
     508                       1       1                               0D     62
     508      40                                                00010000D     63
     508                       1       1                               0D     64
     508      41                                                00010000D     65
     508                       1       1                               0D     66
     508      42                                                00010000D     67
     508                       1       1                               0D     68
     126      43                                                00010000D     69
     126       0               4       0                               0D     70
     126      47                                                00010000D     71
     126       0               3       0                               0D     72
     126      50                                                00010000D     73
     126       0               4       0                               0D     74
     126      54                                                00010000D     75
     126       0               5       0                               0D     76
     126      59                                                00010000D     77
     126       0               5       0                               0D     78
     126      64                                                00010000D     79
     126       0               5       0                               0D     80
     126      69                                                00010000D     81
     126       0               7       0                               0D     82
     126      76                                                00010000D     83
     126       0               6       0                               0D     84
     126      82                                                00010000D     85
     126       0               7       0                               0D     86
     126      89                                                00010000D     87
     126       0               7       0                               0D     88
     126      96                                                00010000D     89
     126       0               6       0                               0D     90
     126     102                                                00010000D     91
     126       0               7       0                               0D     92
     126     109                                                00010000D     93
     126       0               3       0                               0D     94
     126     112                                                00010000D     95
     126       0               6       0                               0D     96
     126     118                                                00010000D     97
     126       0               6       0                               0D     98
     126     124                                                00010000D     99
     126       0               7       0                               0D    100
     126     131                                                00010000D    101
     126       0               6       0                               0D    102
     126     137                                                00010000D    103
     126       0               4       0                               0D    104
     126     141                                                00010000D    105
     126       0               3       0                               0D    106
     126     144                                                00010000D    107
     126       0               4       0                               0D    108
     126     148                                                00010000D    109
     126       0               4       0                               0D    110
     126     152                                                00010000D    111
     126       0               4       0                               0D    112
     126     156                                                00010000D    113
     126       0               7       0                               0D    114
     126     163                                                00010000D    115
     126       0              12       0                               0D    116
     126     175                                                00010000D    117
     126       0               8       0                               0D    118
     126     183                                                00010000D    119
     126       0               8       0                               0D    120
     126     191                                                00010000D    121
     126       0               5       0                               0D    122
     126     196                                                00010000D    123
     126       0               5       0                               0D    124
     126     201                                                00010000D    125
     126       0               3       0                               0D    126
     126     204                                                00010000D    127
     126       0               7       0                               0D    128
     126     211                                                00010000D    129
     126       0               4       0                               0D    130
     126     215                                                00010000D    131
     126       0               8       0                               0D    132
     126     223                                                00010000D    133
     126       0               7       0                               0D    134
     126     230                                                00010000D    135
     126       0              12       0                               0D    136
     126     242                                                00010000D    137
     126       0               3       0                               0D    138
     126     245                                                00010000D    139
     126       0               4       0                               0D    140
     126     249                                                00010000D    141
     126       0               4       0                               0D    142
     126     253                                                00010000D    143
     126       0               3       0                               0D    144
     128     256                                                00010000D    145
     128       0    -179       7       0                               0D    146
     128     263                                                00010000D    147
     128       0    -179      11       0                               0D    148
     128     274                                                00010000D    149
     128       0    -179       8       0                               0D    150
     128     282                                                00010000D    151
     128       0    -179      11       0                               0D    152
     128     293                                                00010000D    153
     128       0    -179       6       0                               0D    154
     128     299                                                00010000D    155
     128       0    -179       7       0                               0D    156
     128     306                                                00010000D    157
     128       0    -179       7       0                               0D    158
     128     313                                                00010000D    159
     128       0    -179       7       0                               0D    160
     128     320                                                00010000D    161
     128       0    -179       8       0                               0D    162
     128     328                                                00010000D    163
     128       0    -179      22       0                               0D    164
     128     350                                                00010000D    165
     128       0    -179      22       0                               0D    166
     128     372                                                00010000D    167
     128       0    -179      11       0                               0D    168
     128     383                                                00010000D    169
     128       0    -179       6       0                               0D    170
     128     389                                                00010000D    171
     128       0    -179      13       0                               0D    172
     502     402                                                00010000D    173
     502                      19       1                               0D    174
     504     421                                                00010001D    175
     504                      11       1                               0D    176
     406     432                                                00000000D    177
     406                       1      15                               0D    178
     314     433                                                00000200D    179
     314                       2       0                               0D    180
186,3,1,0,0,1,177;                                                     1P      1
514,14,5,1,7,1,9,1,11,1,13,1,15,1,17,1,19,1,21,1,23,1,25,1,27,1,       3P      2
29,1,31,1;                                                             3P      3
510,145,1,1,33;                                                        5P      4
510,147,1,1,35;                                                        7P      5
510,149,1,1,37;                                                        9P      6
510,151,1,1,39;                                                       11P      7
510,153,1,1,41;                                                       13P      8
510,155,3,1,43,45,47;                                                 15P      9
510,157,1,1,49;                                                       17P     10
510,159,3,1,51,53,55;                                                 19P     11
510,161,1,1,57;                                                       21P     12
510,163,1,1,59;                                                       23P     13
510,165,1,1,61;                                                       25P     14
510,167,1,1,63;                                                       27P     15
510,169,1,1,65;                                                       29P     16
510,171,1,1,67;                                                       31P     17
508,6,0,175,1,1,0,0,175,2,1,0,0,175,3,1,0,0,175,4,1,0,0,175,5,1,      33P     18
0,0,175,6,1,0;                                                        33P     19
508,6,0,175,6,0,0,0,175,7,1,0,0,175,8,1,0,0,175,9,1,0,0,175,10,       35P     20
1,0,0,175,11,1,0;                                                     35P     21
508,4,0,175,5,0,0,0,175,12,0,0,0,175,13,0,0,0,175,7,0,0;              37P     22
508,6,0,175,4,0,0,0,175,14,1,0,0,175,15,1,0,0,175,16,1,0,0,175,       39P     23
17,1,0,0,175,12,1,0;                                                  39P     24
508,4,0,175,2,0,0,0,175,18,0,0,0,175,19,1,0,0,175,20,0,0;             41P     25
508,6,0,175,1,0,0,0,175,11,0,0,0,175,21,0,0,0,175,22,1,0,0,175,       43P     26
23,1,0,0,175,18,1,0;                                                  43P     27
508,1,0,175,24,1,0;                                                   45P     28
508,2,0,175,25,1,0,0,175,26,1,0;                                      47P     29
508,6,0,175,10,0,0,0,175,27,1,0,0,175,15,0,0,0,175,28,1,0,0,175,      49P     30
29,1,0,0,175,21,1,0;                                                  49P     31
508,6,0,175,3,0,0,0,175,20,1,0,0,175,30,1,0,0,175,31,1,0,0,175,       51P     32
28,0,0,0,175,14,0,0;                                                  51P     33
508,2,0,175,32,1,0,0,175,33,1,0;                                      53P     34
508,1,0,175,34,1,0;                                                   55P     35
508,4,0,175,9,0,0,0,175,35,1,0,0,175,16,0,0,0,175,27,0,0;             57P     36
508,6,0,175,32,0,0,0,175,33,0,0,0,175,36,1,0,0,175,25,0,0,0,175,      59P     37
26,0,0,0,175,36,0,0;                                                  59P     38
508,4,0,175,34,0,0,0,175,37,1,0,0,175,24,0,0,0,175,37,0,0;            61P     39
508,4,0,175,8,0,0,0,175,13,1,0,0,175,17,0,0,0,175,35,0,0;             63P     40
508,4,0,175,29,0,0,0,175,31,0,0,0,175,38,0,0,0,175,22,0,0;            65P     41
508,4,0,175,38,1,0,0,175,30,0,0,0,175,19,0,0,0,175,23,0,0;            67P     42
126,1,1,0,0,1,0,-0.336863908167511,-0.336863908167511,                69P     43
-0.26082852983464,-0.26082852983464,1.,1.,-0.5,-1.4306417469861,      69P     44
-1.60448262477644,-0.5,-1.48044558110342,-1.6619365790828,            69P     45
-0.336863908167511,-0.26082852983464,0.,0.,0.;                        69P     46
126,1,1,0,0,1,0,-0.5,-0.5,0.5,0.5,1.,1.,-0.5,-1.48044558110342,       71P     47
-1.6619365790828,0.5,-1.48044558110342,-1.6619365790828,-0.5,         71P     48
0.5,0.,0.,0.;                                                         71P     49
126,1,1,0,0,1,0,0.26082852983464,0.26082852983464,                    73P     50
0.336863908167511,0.336863908167511,1.,1.,0.5,-1.48044558110342,      73P     51
-1.6619365790828,0.5,-1.4306417469861,-1.60448262477644,              73P     52
0.26082852983464,0.336863908167511,0.,0.,0.;                          73P     53
126,1,1,0,0,1,0,-0.106071597100501,-0.106071597100501,                75P     54
0.0642859638926215,0.0642859638926215,1.,1.,0.5,                      75P     55
-1.4306417469861,-1.60448262477644,0.379545350275249,                 75P     56
-1.35173460257085,-1.51345494487937,-0.106071597100501,               75P     57
0.0642859638926215,0.,0.,0.;                                          75P     58
126,1,1,0,0,1,0,-0.3795452579983,-0.3795452579983,                    77P     59
0.379545257998056,0.379545257998056,1.,1.,0.3795452579983,            77P     60
-1.35173466300669,-1.51345501459846,-0.379545257998056,               77P     61
-1.35173466300669,-1.51345501459846,-0.3795452579983,                 77P     62
0.379545257998056,0.,0.,0.;                                           77P     63
126,1,1,0,0,1,0,-0.0642859638928071,-0.0642859638928071,              79P     64
0.106071597100489,0.106071597100489,1.,1.,-0.379545350275127,         79P     65
-1.35173460257077,-1.51345494487928,-0.5,-1.4306417469861,            79P     66
-1.60448262477644,-0.0642859638928071,0.106071597100489,0.,0.,        79P     67
0.;                                                                   79P     68
126,2,2,0,0,0,0,0.139667754312012,0.139667754312012,                  81P     69
0.139667754312012,0.177508523094293,0.177508523094293,                81P     70
0.177508523094293,1.03400107290561,1.03840403957018,                  81P     71
1.04269697456675,-0.379545257998056,-1.35173466300669,                81P     72
-1.51345501459846,-0.364523861533374,-1.32918459101907,               81P     73
-1.51345501459846,-0.35,-1.30696284606646,-1.51345501459846,          81P     74
0.139667754312012,0.177508523094293,0.,0.,0.;                         81P     75
126,2,2,0,0,0,0,-0.712360500261712,-0.712360500261712,                83P     76
-0.712360500261712,0.71226996392128,0.71226996392128,                 83P     77
0.71226996392128,1.,0.756850698351227,1.,-0.35,                       83P     78
-1.30696284606642,-1.51345501459842,-0.35,-6.7612582199672D-14,       83P     79
-2.64209898783946,-0.35,1.30696284606634,-1.51345501459848,           83P     80
-0.712360500261712,0.71226996392128,0.,0.,0.;                         83P     81
126,2,2,0,0,0,0,3.13025773716362,3.13025773716362,                    85P     82
3.13025773716362,3.16385584913905,3.16385584913905,                   85P     83
3.16385584913905,1.04269697456166,1.03888535774303,                   85P     84
1.03498699930201,-0.35,1.30696284606632,-1.51345501459846,            85P     85
-0.36288949096255,1.3266839773974,-1.51345501459846,                  85P     86
-0.376170513645235,1.34666320677359,-1.51345501459846,                85P     87
3.13025773716362,3.16385584913905,0.,0.,0.;                           85P     88
126,2,2,0,0,0,0,1.28182608340503,1.28182608340503,                    87P     89
1.28182608340503,1.41430122606595,1.41430122606595,                   87P     90
1.41430122606595,1.00838299956904,1.00462468611074,1.,                87P     91
-0.376170513645235,1.34666320677359,-1.51345501459846,                87P     92
-0.436248850904812,1.38605135381256,-1.55882592337561,-0.5,           87P     93
1.42784709543528,-1.60697012215099,1.28182608340503,                  87P     94
1.41430122606595,0.,0.,0.;                                            87P     95
126,2,2,0,0,0,0,-0.72639861713449,-0.72639861713449,                  89P     96
-0.72639861713449,0.728229581290943,0.728229581290943,                89P     97
0.728229581290943,1.,0.746962858003029,1.,-0.5,1.42784709543528,      89P     98
-1.60697012215099,-0.5,-0.00250437670391557,-2.87788559642988,        89P     99
-0.5,-1.4306417469861,-1.60448262477644,-0.72639861713449,            89P    100
0.728229581290943,0.,0.,0.;                                           89P    101
126,2,2,0,0,0,0,3.1302577371637,3.1302577371637,3.1302577371637,      91P    102
3.16809850594365,3.16809850594365,3.16809850594365,                   91P    103
1.04269697456164,1.03840403956527,1.03400107290091,0.35,              91P    104
-1.30696284606646,-1.51345501459846,0.364523861533184,                91P    105
-1.32918459101857,-1.51345501459846,0.3795452579983,                  91P    106
-1.35173466300669,-1.51345501459846,3.1302577371637,                  91P    107
3.16809850594365,0.,0.,0.;                                            91P    108
126,1,1,0,0,1,0,-0.35,-0.35,0.35,0.35,1.,1.,-0.35,                    93P    109
-1.30696284606646,-1.51345501459846,0.35,-1.30696284606646,           93P    110
-1.51345501459846,-0.35,0.35,0.,0.,0.;                                93P    111
126,2,2,0,0,0,0,-0.728229581290943,-0.728229581290943,                95P    112
-0.728229581290943,0.72639861713449,0.72639861713449,                 95P    113
0.72639861713449,1.,0.746962858003029,1.,0.5,-1.4306417469861,        95P    114
-1.60448262477644,0.5,-0.00250437670391557,-2.87788559642988,         95P    115
0.5,1.42784709543528,-1.60697012215099,-0.728229581290943,            95P    116
0.72639861713449,0.,0.,0.;                                            95P    117
126,2,2,0,0,0,0,0.,0.,0.,0.132475142660924,0.132475142660924,         97P    118
0.132475142660924,1.,1.00462468611074,1.00838299956904,0.5,           97P    119
1.42784709543528,-1.60697012215099,0.436248850904812,                 97P    120
1.38605135381256,-1.55882592337561,0.376170513645235,                 97P    121
1.34666320677359,-1.51345501459846,0.,0.132475142660924,0.,0.,        97P    122
0.;                                                                   97P    123
126,2,2,0,0,0,0,0.14391041108965,0.14391041108965,                    99P    124
0.14391041108965,0.177508523094375,0.177508523094375,                 99P    125
0.177508523094375,1.03498699930044,1.03888535774488,                  99P    126
1.04269697456677,0.376170513645235,1.34666320677359,                  99P    127
-1.51345501459846,0.362889490951528,1.32668397738086,                 99P    128
-1.51345501459846,0.35,1.30696284606632,-1.51345501459846,            99P    129
0.14391041108965,0.177508523094375,0.,0.,0.;                          99P    130
126,2,2,0,0,0,0,-0.71226996392128,-0.71226996392128,                 101P    131
-0.71226996392128,0.712360500261712,0.712360500261712,               101P    132
0.712360500261712,1.,0.756850698351227,1.,0.35,1.30696284606634,     101P    133
-1.51345501459848,0.35,-6.7612582199672D-14,-2.64209898783946,       101P    134
0.35,-1.30696284606642,-1.51345501459842,-0.71226996392128,          101P    135
0.712360500261712,0.,0.,0.;                                          101P    136
126,1,1,0,0,1,0,-3.53579248591392,-3.53579248591392,-0.15,-0.15,     103P    137
1.,1.,-0.5,-0.999909490836067,-5.0134550146015,-0.5,                 103P    138
-1.48044558110342,-1.6619365790828,-3.53579248591392,-0.15,0.,       103P    139
0.,0.;                                                               103P    140
126,1,1,0,0,1,0,-0.5,-0.5,0.5,0.5,1.,1.,-0.5,-0.999909490836067,     105P    141
-5.0134550146015,0.5,-0.999909490836067,-5.0134550146015,-0.5,       105P    142
0.5,0.,0.,0.;                                                        105P    143
126,1,1,0,0,1,0,0.15,0.15,3.53579248591392,3.53579248591392,1.,      107P    144
1.,0.5,-1.48044558110342,-1.6619365790828,0.5,                       107P    145
-0.999909490836067,-5.0134550146015,0.15,3.53579248591392,0.,0.,     107P    146
0.;                                                                  107P    147
126,1,1,0,0,1,0,0.259786670705409,0.259786670705409,                 109P    148
0.332617733123325,0.332617733123325,1.,1.,-0.5,1.47559253254407,     109P    149
-1.66196773017364,-0.5,1.42784709543528,-1.60697012215099,           109P    150
0.259786670705409,0.332617733123325,0.,0.,0.;                        109P    151
126,1,1,0,0,1,0,0.15,0.15,3.53505084037536,3.53505084037536,1.,      111P    152
1.,-0.5,1.47559253254407,-1.66196773017364,-0.5,                     111P    153
1.00009050915793,-5.0134550146015,0.15,3.53505084037536,0.,0.,       111P    154
0.;                                                                  111P    155
126,4,2,0,0,0,0,-3.14159265358979,-3.14159265358979,                 113P    156
-3.14159265358979,-1.5707963267949,-1.5707963267949,0.,0.,0.,1.,     113P    157
0.707106781186547,1.,0.707106781186547,1.,-0.5,1.00009050915786,     113P    158
-5.0134550146015,-0.5,1.00009050915786,-6.01345501459846,-0.5,       113P    159
9.05091608988184D-5,-6.01345501459846,-0.5,-0.999909490836067,       113P    160
-6.01345501459846,-0.5,-0.999909490836067,-5.0134550146015,          113P    161
-3.14159265358979,0.,0.,0.,0.;                                       113P    162
126,8,2,0,1,0,0,-3.14159265358979,-3.14159265358979,                 115P    163
-3.14159265358979,-1.5707963267949,-1.5707963267949,0.,0.,           115P    164
1.5707963267949,1.5707963267949,3.14159265358979,                    115P    165
3.14159265358979,3.14159265358979,1.,0.707106781186547,1.,           115P    166
0.707106781186547,1.,0.707106781186547,1.,0.707106781186547,1.,      115P    167
-0.5,-0.424909490839101,-3.0134550146015,-0.5,                       115P    168
-0.424909490839101,-3.4384550146015,-0.5,9.05091608990256D-5,        115P    169
-3.4384550146015,-0.5,0.425090509160899,-3.4384550146015,-0.5,       115P    170
0.425090509160899,-3.0134550146015,-0.5,0.425090509160899,           115P    171
-2.5884550146015,-0.5,9.05091608990256D-5,-2.5884550146015,-0.5,     115P    172
-0.424909490839101,-2.5884550146015,-0.5,-0.424909490839101,         115P    173
-3.0134550146015,-3.14159265358979,3.14159265358979,0.,0.,0.;        115P    174
126,4,2,0,0,0,0,0.,0.,0.,1.5707963267949,1.5707963267949,            117P    175
3.14159265358979,3.14159265358979,3.14159265358979,1.,               117P    176
0.707106781186548,1.,0.707106781186548,1.,-0.5,                      117P    177
9.05216039329432D-5,-4.5884550146015,-0.5,-0.424909478396069,        117P    178
-4.58845500215846,-0.5,-0.424909490839103,-5.01345500215846,         117P    179
-0.5,-0.424909503282137,-5.43845500215847,-0.5,                      117P    180
9.04967178647639D-5,-5.4384550146015,0.,3.14159265358979,0.,0.,      117P    181
0.;                                                                  117P    182
126,4,2,0,0,0,0,3.14159265358979,3.14159265358979,                   119P    183
3.14159265358979,4.71238898038469,4.71238898038469,                  119P    184
6.28318530717959,6.28318530717959,6.28318530717959,1.,               119P    185
0.707106781186549,1.,0.707106781186548,1.,-0.5,                      119P    186
9.04967178647639D-5,-5.4384550146015,-0.5,0.425090496717866,         119P    187
-5.43845502704453,-0.5,0.4250905091609,-5.01345502704453,-0.5,       119P    188
0.425090521603935,-4.58845502704453,-0.5,9.05216039330473D-5,        119P    189
-4.5884550146015,3.14159265358979,6.28318530717959,0.,0.,0.;         119P    190
126,1,1,0,0,1,0,-0.376170513645235,-0.376170513645235,               121P    191
0.376170513645235,0.376170513645235,1.,1.,-0.376170513645235,        121P    192
1.34666320677359,-1.51345501459846,0.376170513645235,                121P    193
1.34666320677359,-1.51345501459846,-0.376170513645235,               121P    194
0.376170513645235,0.,0.,0.;                                          121P    195
126,1,1,0,0,1,0,-0.332617733123325,-0.332617733123325,               123P    196
-0.259786670705409,-0.259786670705409,1.,1.,0.5,                     123P    197
1.42784709543528,-1.60697012215099,0.5,1.47559253254407,             123P    198
-1.66196773017364,-0.332617733123325,-0.259786670705409,0.,0.,       123P    199
0.;                                                                  123P    200
126,1,1,0,0,1,0,-0.5,-0.5,0.5,0.5,1.,1.,0.5,1.47559253254407,        125P    201
-1.66196773017364,-0.5,1.47559253254407,-1.66196773017364,-0.5,      125P    202
0.5,0.,0.,0.;                                                        125P    203
126,4,2,0,0,0,0,0.,0.,0.,1.5707963267949,1.5707963267949,            127P    204
3.14159265358979,3.14159265358979,3.14159265358979,1.,               127P    205
0.707106781186547,1.,0.707106781186547,1.,0.5,                       127P    206
-0.999909490836067,-5.0134550146015,0.5,-0.999909490836067,          127P    207
-6.01345501459846,0.5,9.05091608988184D-5,-6.01345501459846,0.5,     127P    208
1.00009050915786,-6.01345501459846,0.5,1.00009050915786,             127P    209
-5.0134550146015,0.,3.14159265358979,0.,0.,0.;                       127P    210
126,1,1,0,0,1,0,-3.53505084037536,-3.53505084037536,-0.15,-0.15,     129P    211
1.,1.,0.5,1.00009050915793,-5.0134550146015,0.5,                     129P    212
1.47559253254407,-1.66196773017364,-3.53505084037536,-0.15,0.,       129P    213
0.,0.;                                                               129P    214
126,4,2,0,0,0,0,-6.28318530717959,-6.28318530717959,                 131P    215
-6.28318530717959,-4.71238898038469,-4.71238898038469,               131P    216
-3.14159265358979,-3.14159265358979,-3.14159265358979,1.,            131P    217
0.707106781186548,1.,0.707106781186549,1.,0.5,                       131P    218
9.05216039330473D-5,-4.5884550146015,0.5,0.425090521603935,          131P    219
-4.58845502704453,0.5,0.4250905091609,-5.01345502704453,0.5,         131P    220
0.425090496717866,-5.43845502704453,0.5,9.04967178647639D-5,         131P    221
-5.4384550146015,-6.28318530717959,-3.14159265358979,0.,0.,0.;       131P    222
126,4,2,0,0,0,0,-3.14159265358979,-3.14159265358979,                 133P    223
-3.14159265358979,-1.5707963267949,-1.5707963267949,0.,0.,0.,1.,     133P    224
0.707106781186548,1.,0.707106781186548,1.,0.5,                       133P    225
9.04967178647639D-5,-5.4384550146015,0.5,-0.424909503282137,         133P    226
-5.43845500215847,0.5,-0.424909490839103,-5.01345500215846,0.5,      133P    227
-0.424909478396069,-4.58845500215846,0.5,9.05216039329432D-5,        133P    228
-4.5884550146015,-3.14159265358979,0.,0.,0.,0.;                      133P    229
126,8,2,0,1,0,0,-3.14159265358979,-3.14159265358979,                 135P    230
-3.14159265358979,-1.5707963267949,-1.5707963267949,0.,0.,           135P    231
1.5707963267949,1.5707963267949,3.14159265358979,                    135P    232
3.14159265358979,3.14159265358979,1.,0.707106781186547,1.,           135P    233
0.707106781186547,1.,0.707106781186547,1.,0.707106781186547,1.,      135P    234
0.5,-0.424909490839101,-3.0134550146015,0.5,-0.424909490839101,      135P    235
-2.5884550146015,0.5,9.05091608990256D-5,-2.5884550146015,0.5,       135P    236
0.425090509160899,-2.5884550146015,0.5,0.425090509160899,            135P    237
-3.0134550146015,0.5,0.425090509160899,-3.4384550146015,0.5,         135P    238
9.05091608990256D-5,-3.4384550146015,0.5,-0.424909490839101,         135P    239
-3.4384550146015,0.5,-0.424909490839101,-3.0134550146015,            135P    240
-3.14159265358979,3.14159265358979,0.,0.,0.;                         135P    241
126,1,1,0,0,1,0,-0.35,-0.35,0.35,0.35,1.,1.,-0.35,                   137P    242
1.30696284606632,-1.51345501459846,0.35,1.30696284606632,            137P    243
-1.51345501459846,-0.35,0.35,0.,0.,0.;                               137P    244
126,1,1,0,0,1,0,-1.17647058823529,-1.17647058823529,                 139P    245
1.17647058823529,1.17647058823529,1.,1.,0.5,9.04967178648159D-5,     139P    246
-5.4384550146015,-0.5,9.04967178648159D-5,-5.4384550146015,          139P    247
-1.17647058823529,1.17647058823529,0.,0.,0.;                         139P    248
126,1,1,0,0,1,0,-1.17647058823529,-1.17647058823529,                 141P    249
1.17647058823529,1.17647058823529,1.,1.,0.5,-0.424909490839101,      141P    250
-3.0134550146015,-0.5,-0.424909490839101,-3.0134550146015,           141P    251
-1.17647058823529,1.17647058823529,0.,0.,0.;                         141P    252
126,1,1,0,0,1,0,-0.5,-0.5,0.5,0.5,1.,1.,-0.5,1.00009050915786,       143P    253
-5.0134550146015,0.5,1.00009050915786,-5.0134550146015,-0.5,0.5,     143P    254
0.,0.,0.;                                                            143P    255
128,1,1,1,1,0,0,1,0,0,-0.501,-0.501,0.501,0.501,                     145P    256
-0.0992513046084103,-0.0992513046084103,0.0992513968757734,          145P    257
0.0992513968757734,1.,1.,1.,1.,-0.501,-1.48110058980081,             145P    258
-1.66269220042074,0.501,-1.48110058980081,-1.66269220042074,         145P    259
-0.501,-1.35107959387338,-1.51269932354134,0.501,                    145P    260
-1.35107959387338,-1.51269932354134,-0.501,0.501,                    145P    261
-0.0992513046084103,0.0992513968757734;                              145P    262
128,1,2,1,2,0,0,0,0,0,-0.0511241734621193,-0.0511241734621193,       147P    263
0.0511241734621106,0.0511241734621106,-0.727102464844526,            147P    264
-0.727102464844526,-0.727102464844526,0.729060100088505,             147P    265
0.729060100088505,0.729060100088505,1.,1.,0.746452564350224,         147P    266
0.746452564350224,1.,1.,-0.349999999999987,1.32926658056759,         147P    267
-1.49390371844949,-0.5,1.42897780390361,-1.6059647372778,            147P    268
-0.349999999999987,-0.00250088862668515,-2.67890243558528,-0.5,      147P    269
-0.00268848580849907,-2.87985282654147,-0.349999999999987,           147P    270
-1.33205352799207,-1.49141924379933,-0.5,-1.43197380641239,          147P    271
-1.60329389669447,-0.0511241734621193,0.0511241734621106,            147P    272
-0.727102464844526,0.729060100088505;                                147P    273
128,1,1,1,1,0,0,1,0,0,-0.001,-0.001,0.0457718169402347,              149P    274
0.0457718169402347,-0.380545257998056,-0.380545257998056,            149P    275
0.3805452579983,0.3805452579983,1.,1.,1.,1.,-0.380545257998056,      149P    276
-1.30596284606646,-1.51345501459846,-0.380545257998056,              149P    277
-1.35273466300669,-1.51345501459846,0.3805452579983,                 149P    278
-1.30596284606646,-1.51345501459846,0.3805452579983,                 149P    279
-1.35273466300669,-1.51345501459846,-0.001,0.0457718169402347,       149P    280
-0.380545257998056,0.3805452579983;                                  149P    281
128,1,2,1,2,0,0,0,0,0,-0.0511241734621193,-0.0511241734621193,       151P    282
0.0511241734621106,0.0511241734621106,-0.729060100088504,            151P    283
-0.729060100088504,-0.729060100088504,0.727102464844526,             151P    284
0.727102464844526,0.727102464844526,1.,1.,0.746452564350224,         151P    285
0.746452564350224,1.,1.,0.349999999999987,-1.33205352799207,         151P    286
-1.49141924379933,0.5,-1.43197380641239,-1.60329389669447,           151P    287
0.349999999999987,-0.00250088862668395,-2.67890243558528,0.5,        151P    288
-0.00268848580849779,-2.87985282654147,0.349999999999987,            151P    289
1.32926658056759,-1.49390371844949,0.5,1.42897780390361,             151P    290
-1.6059647372778,-0.0511241734621193,0.0511241734621106,             151P    291
-0.729060100088504,0.727102464844526;                                151P    292
128,1,1,1,1,0,0,1,0,0,0.149,0.149,3.53679248591392,                  153P    293
3.53679248591392,-0.501,-0.501,0.501,0.501,1.,1.,1.,1.,-0.501,       153P    294
-1.48058750831611,-1.66094670198624,-0.501,-0.999767563623379,       153P    295
-5.01444489169806,0.501,-1.48058750831611,-1.66094670198624,         153P    296
0.501,-0.999767563623379,-5.01444489169806,0.149,                    153P    297
3.53679248591392,-0.501,0.501;                                       153P    298
128,1,1,1,1,0,0,1,0,0,-1.47890985298687,-1.47890985298687,           155P    299
1.47912826066062,1.47912826066062,-2.251,-2.251,                     155P    300
2.15997238982202,2.15997238982202,1.,1.,1.,1.,-0.5,                  155P    301
1.47659253254407,-6.01445501459846,-0.5,-1.48144558110342,           155P    302
-6.01445501459846,-0.5,1.47659253254407,-1.60348262477644,-0.5,      155P    303
-1.48144558110342,-1.60348262477644,-1.47890985298687,               155P    304
1.47912826066062,-2.251,2.15997238982202;                            155P    305
128,1,1,1,1,0,0,1,0,0,-0.501,-0.501,0.501,0.501,                     157P    306
-0.0993346298756741,-0.0993346298756741,0.0993346298756742,          157P    307
0.0993346298756742,1.,1.,1.,1.,-0.501,1.34600764257442,              157P    308
-1.51269987515388,0.501,1.34600764257442,-1.51269987515388,          157P    309
-0.501,1.47624809674324,-1.66272286961822,0.501,                     157P    310
1.47624809674324,-1.66272286961822,-0.501,0.501,                     157P    311
-0.0993346298756741,0.0993346298756742;                              157P    312
128,1,1,1,1,0,0,1,0,0,-1.47890985298687,-1.47890985298687,           159P    313
1.47912826066062,1.47912826066062,-2.251,-2.251,                     159P    314
2.15997238982202,2.15997238982202,1.,1.,1.,1.,0.5,                   159P    315
-1.48144558110342,-6.01445501459846,0.5,1.47659253254407,            159P    316
-6.01445501459846,0.5,-1.48144558110342,-1.60348262477644,0.5,       159P    317
1.47659253254407,-1.60348262477644,-1.47890985298687,                159P    318
1.47912826066062,-2.251,2.15997238982202;                            159P    319
128,1,1,1,1,0,0,1,0,0,0.149,0.149,0.190700360707268,                 161P    320
0.190700360707268,-0.377170513645235,-0.377170513645235,             161P    321
0.377170513645235,0.377170513645235,1.,1.,1.,1.,                     161P    322
-0.377170513645235,1.34766320677359,-1.51345501459846,               161P    323
-0.377170513645235,1.30596284606632,-1.51345501459846,               161P    324
0.377170513645235,1.34766320677359,-1.51345501459846,                161P    325
0.377170513645235,1.30596284606632,-1.51345501459846,0.149,          161P    326
0.190700360707268,-0.377170513645235,0.377170513645235;              161P    327
128,1,8,1,2,0,1,0,0,1,-1.17647058823529,-1.17647058823529,           163P    328
1.17647058823529,1.17647058823529,-3.14159265358979,                 163P    329
-3.14159265358979,-3.14159265358979,-1.5707963267949,                163P    330
-1.5707963267949,0.,0.,1.5707963267949,1.5707963267949,              163P    331
3.14159265358979,3.14159265358979,3.14159265358979,1.,1.,            163P    332
0.707106781186548,0.707106781186548,1.,1.,0.707106781186548,         163P    333
0.707106781186548,1.,1.,0.707106781186548,0.707106781186548,1.,      163P    334
1.,0.707106781186548,0.707106781186548,1.,1.,-0.5,                   163P    335
9.04967178648159D-5,-5.4384550146015,0.5,9.04967178648159D-5,        163P    336
-5.4384550146015,-0.5,0.425090496717866,-5.43845502704453,0.5,       163P    337
0.425090496717866,-5.43845502704453,-0.5,0.4250905091609,            163P    338
-5.01345502704453,0.5,0.4250905091609,-5.01345502704453,-0.5,        163P    339
0.425090521603934,-4.58845502704453,0.5,0.425090521603934,           163P    340
-4.58845502704453,-0.5,9.05216039329432D-5,-4.5884550146015,0.5,     163P    341
9.05216039329432D-5,-4.5884550146015,-0.5,-0.424909478396069,        163P    342
-4.58845500215846,0.5,-0.424909478396069,-4.58845500215846,-0.5,     163P    343
-0.424909490839103,-5.01345500215846,0.5,-0.424909490839103,         163P    344
-5.01345500215846,-0.5,-0.424909503282137,-5.43845500215847,0.5,     163P    345
-0.424909503282137,-5.43845500215847,-0.5,9.04967178648159D-5,       163P    346
-5.4384550146015,0.5,9.04967178648159D-5,-5.4384550146015,           163P    347
-1.17647058823529,1.17647058823529,-3.14159265358979,                163P    348
3.14159265358979;                                                    163P    349
128,1,8,1,2,0,1,0,0,1,-1.17647058823529,-1.17647058823529,           165P    350
1.17647058823529,1.17647058823529,-3.14159265358979,                 165P    351
-3.14159265358979,-3.14159265358979,-1.5707963267949,                165P    352
-1.5707963267949,0.,0.,1.5707963267949,1.5707963267949,              165P    353
3.14159265358979,3.14159265358979,3.14159265358979,1.,1.,            165P    354
0.707106781186548,0.707106781186548,1.,1.,0.707106781186548,         165P    355
0.707106781186548,1.,1.,0.707106781186548,0.707106781186548,1.,      165P    356
1.,0.707106781186548,0.707106781186548,1.,1.,-0.5,                   165P    357
-0.424909490839101,-3.0134550146015,0.5,-0.424909490839101,          165P    358
-3.0134550146015,-0.5,-0.424909490839101,-3.4384550146015,0.5,       165P    359
-0.424909490839101,-3.4384550146015,-0.5,9.05091608989996D-5,        165P    360
-3.4384550146015,0.5,9.05091608989996D-5,-3.4384550146015,-0.5,      165P    361
0.425090509160899,-3.4384550146015,0.5,0.425090509160899,            165P    362
-3.4384550146015,-0.5,0.425090509160899,-3.0134550146015,0.5,        165P    363
0.425090509160899,-3.0134550146015,-0.5,0.425090509160899,           165P    364
-2.5884550146015,0.5,0.425090509160899,-2.5884550146015,-0.5,        165P    365
9.05091608989996D-5,-2.5884550146015,0.5,9.05091608989996D-5,        165P    366
-2.5884550146015,-0.5,-0.424909490839101,-2.5884550146015,0.5,       165P    367
-0.424909490839101,-2.5884550146015,-0.5,-0.424909490839101,         165P    368
-3.0134550146015,0.5,-0.424909490839101,-3.0134550146015,            165P    369
-1.17647058823529,1.17647058823529,-3.14159265358979,                165P    370
3.14159265358979;                                                    165P    371
128,1,2,1,2,0,0,0,0,0,-0.175028489031907,-0.175028489031907,         167P    372
0.175028489031907,0.175028489031907,-0.712360500261712,              167P    373
-0.712360500261712,-0.712360500261712,0.71226996392128,              167P    374
0.71226996392128,0.71226996392128,1.,1.,0.756850698351227,           167P    375
0.756850698351227,1.,1.,-0.35,-1.30696284606642,                     167P    376
-1.51345501459842,0.35,-1.30696284606642,-1.51345501459842,          167P    377
-0.35,-6.7387149462958D-14,-2.64209898783946,0.35,                   167P    378
-6.7387149462958D-14,-2.64209898783946,-0.35,1.30696284606634,       167P    379
-1.51345501459848,0.35,1.30696284606634,-1.51345501459848,           167P    380
-0.175028489031907,0.175028489031907,-0.712360500261712,             167P    381
0.71226996392128;                                                    167P    382
128,1,1,1,1,0,0,1,0,0,-0.00100000000000898,-0.00100000000000898,     169P    383
3.38605084037536,3.38605084037536,-0.501,-0.501,0.501,0.501,1.,      169P    384
1.,1.,1.,-0.501,0.999950037996397,-5.01444509937201,-0.501,          169P    385
1.4757330037056,-1.66097764540314,0.501,0.999950037996397,           169P    386
-5.01444509937201,0.501,1.4757330037056,-1.66097764540314,           169P    387
-0.00100000000000898,3.38605084037536,-0.501,0.501;                  169P    388
128,1,4,1,2,0,0,0,0,0,-0.500000000001517,-0.500000000001517,         171P    389
0.500000000001517,0.500000000001517,0.,0.,0.,1.5707963267949,        171P    390
1.5707963267949,3.14159265358979,3.14159265358979,                   171P    391
3.14159265358979,1.,1.,0.707106781186548,0.707106781186548,1.,       171P    392
1.,0.707106781186548,0.707106781186548,1.,1.,0.5,                    171P    393
-0.999909490836067,-5.0134550146015,-0.5,-0.999909490836067,         171P    394
-5.0134550146015,0.5,-0.999909490836067,-6.01345501459846,-0.5,      171P    395
-0.999909490836067,-6.01345501459846,0.5,9.05091608988796D-5,        171P    396
-6.01345501459846,-0.5,9.05091608988796D-5,-6.01345501459846,        171P    397
0.5,1.00009050915786,-6.01345501459846,-0.5,1.00009050915786,        171P    398
-6.01345501459846,0.5,1.00009050915786,-5.0134550146015,-0.5,        171P    399
1.00009050915786,-5.0134550146015,-0.500000000001517,                171P    400
0.500000000001517,0.,3.14159265358979;                               171P    401
502,26,-0.5,-1.4306417469861,-1.60448262477644,-0.5,                 173P    402
-1.48044558110342,-1.6619365790828,0.5,-1.48044558110342,            173P    403
-1.6619365790828,0.5,-1.4306417469861,-1.60448262477644,             173P    404
0.3795452579983,-1.35173466300669,-1.51345501459846,                 173P    405
-0.379545257998056,-1.35173466300669,-1.51345501459846,-0.35,        173P    406
-1.30696284606646,-1.51345501459846,-0.35,1.30696284606632,          173P    407
-1.51345501459846,-0.376170513645235,1.34666320677359,               173P    408
-1.51345501459846,-0.5,1.42784709543528,-1.60697012215099,0.35,      173P    409
-1.30696284606646,-1.51345501459846,0.5,1.42784709543528,            173P    410
-1.60697012215099,0.376170513645235,1.34666320677359,                173P    411
-1.51345501459846,0.35,1.30696284606632,-1.51345501459846,-0.5,      173P    412
-0.999909490836067,-5.0134550146015,0.5,-0.999909490836067,          173P    413
-5.0134550146015,-0.5,1.47559253254407,-1.66196773017364,-0.5,       173P    414
1.00009050915786,-5.0134550146015,-0.5,-0.424909490839101,           173P    415
-3.0134550146015,-0.5,9.05216039329693D-5,-4.5884550146015,-0.5,     173P    416
9.04967178648159D-5,-5.4384550146015,0.5,1.47559253254407,           173P    417
-1.66196773017364,0.5,1.00009050915786,-5.0134550146015,0.5,         173P    418
9.05216039329693D-5,-4.5884550146015,0.5,9.04967178648159D-5,        173P    419
-5.4384550146015,0.5,-0.424909490839101,-3.0134550146015;            173P    420
504,38,69,173,1,173,2,71,173,2,173,3,73,173,3,173,4,75,173,4,        175P    421
173,5,77,173,5,173,6,79,173,6,173,1,81,173,6,173,7,83,173,7,173,     175P    422
8,85,173,8,173,9,87,173,9,173,10,89,173,10,173,1,91,173,11,173,      175P    423
5,93,173,7,173,11,95,173,4,173,12,97,173,12,173,13,99,173,13,        175P    424
173,14,101,173,14,173,11,103,173,15,173,2,105,173,15,173,16,107,     175P    425
173,3,173,16,109,173,17,173,10,111,173,17,173,18,113,173,18,173,     175P    426
15,115,173,19,173,19,117,173,20,173,21,119,173,21,173,20,121,        175P    427
173,9,173,13,123,173,12,173,22,125,173,22,173,17,127,173,16,173,     175P    428
23,129,173,23,173,22,131,173,24,173,25,133,173,25,173,24,135,        175P    429
173,26,173,26,137,173,8,173,14,139,173,25,173,21,141,173,26,173,     175P    430
19,143,173,18,173,23;                                                175P    431
406,1,8HKörper4;                                                    177P    432
314,79.6078431372549,79.6078431372549,79.6078431372549,21HEdelst     179P    433
ahl - satiniert;                                                     179P    434
S      1G      3D    180P    434                                        T      1
