                                                                        S      1
,,11HLagerschale,11HLagerschale,7Hunknown,7Hunknown,32,38,7,99,15,,1.,  G      1
10,2HCM,1,0.08,15H20260416.151212,0.001,10000.,7Hunknown,7Hunknown,11,0,G      2
15H20260325.111428;                                                     G      3
     186       1                                                00000000D      1
     186             -71       1       0                               0D      2
     514       2                                                00010000D      3
     514                       1       1                               0D      4
     510       3                                                00010000D      5
     510             -71       1       1                               0D      6
     510       4                                                00010000D      7
     510             -71       1       1                               0D      8
     510       5                                                00010000D      9
     510             -71       1       1                               0D     10
     510       6                                                00010000D     11
     510             -71       1       1                               0D     12
     510       7                                                00010000D     13
     510             -71       1       1                               0D     14
     510       8                                                00010000D     15
     510             -71       1       1                               0D     16
     508       9                                                00010000D     17
     508                       1       1                               0D     18
     508      10                                                00010000D     19
     508                       1       1                               0D     20
     508      11                                                00010000D     21
     508                       1       1                               0D     22
     508      12                                                00010000D     23
     508                       1       1                               0D     24
     508      13                                                00010000D     25
     508                       1       1                               0D     26
     508      14                                                00010000D     27
     508                       1       1                               0D     28
     508      15                                                00010000D     29
     508                       1       1                               0D     30
     508      16                                                00010000D     31
     508                       1       1                               0D     32
     508      17                                                00010000D     33
     508                       1       1                               0D     34
     126      18                                                00010000D     35
     126       0              10       0                               0D     36
     126      28                                                00010000D     37
     126       0               2       0                               0D     38
     126      30                                                00010000D     39
     126       0              10       0                               0D     40
     126      40                                                00010000D     41
     126       0              10       0                               0D     42
     126      50                                                00010000D     43
     126       0               2       0                               0D     44
     126      52                                                00010000D     45
     126       0              10       0                               0D     46
     126      62                                                00010000D     47
     126       0               9       0                               0D     48
     126      71                                                00010000D     49
     126       0               2       0                               0D     50
     126      73                                                00010000D     51
     126       0               9       0                               0D     52
     128      82                                                00010000D     53
     128       0     -71      12       0                               0D     54
     128      94                                                00010000D     55
     128       0     -71      12       0                               0D     56
     128     106                                                00010000D     57
     128       0     -71       3       0                               0D     58
     128     109                                                00010000D     59
     128       0     -71      11       0                               0D     60
     128     120                                                00010000D     61
     128       0     -71       3       0                               0D     62
     128     123                                                00010000D     63
     128       0     -71       3       0                               0D     64
     502     126                                                00010000D     65
     502                       4       1                               0D     66
     504     130                                                00010001D     67
     504                       2       1                               0D     68
     406     132                                                00000000D     69
     406                       1      15                               0D     70
     314     133                                                00000200D     71
     314                       2       0                               0D     72
     314     135                                                00000200D     73
     314                       2       0                               0D     74
186,3,1,0,0,1,69;                                                      1P      1
514,6,5,1,7,1,9,1,11,1,13,1,15,1;                                      3P      2
510,53,1,1,17;                                                         5P      3
510,55,1,1,19;                                                         7P      4
510,57,2,1,21,23;                                                      9P      5
510,59,1,1,25;                                                        11P      6
510,61,2,1,27,29;                                                     13P      7
510,63,2,1,31,33;                                                     15P      8
508,4,0,67,1,0,0,0,67,2,1,0,0,67,3,0,0,0,67,2,0,0;                    17P      9
508,4,0,67,4,0,0,0,67,5,1,0,0,67,6,1,0,0,67,5,0,0;                    19P     10
508,1,0,67,6,0,0;                                                     21P     11
508,1,0,67,1,1,0;                                                     23P     12
508,4,0,67,7,0,0,0,67,8,1,0,0,67,9,1,0,0,67,8,0,0;                    25P     13
508,1,0,67,7,1,0;                                                     27P     14
508,1,0,67,3,1,0;                                                     29P     15
508,1,0,67,9,0,0;                                                     31P     16
508,1,0,67,4,1,0;                                                     33P     17
126,8,2,0,1,0,0,-3.14159265358979,-3.14159265358979,                  35P     18
-3.14159265358979,-1.5707963267949,-1.5707963267949,0.,0.,            35P     19
1.5707963267949,1.5707963267949,3.14159265358979,                     35P     20
3.14159265358979,3.14159265358979,1.,0.707106781186548,1.,            35P     21
0.707106781186548,1.,0.707106781186548,1.,0.707106781186548,1.,       35P     22
1.4,1.5,1.83697019872103D-16,1.4,1.5,1.5,1.4,                         35P     23
-9.18485099360515D-17,1.5,1.4,-1.5,1.5,1.4,-1.5,0.,1.4,-1.5,          35P     24
-1.5,1.4,-9.18485099360515D-17,-1.5,1.4,1.5,-1.5,1.4,1.5,             35P     25
-1.83697019872103D-16,-3.14159265358979,3.14159265358979,0.,0.,       35P     26
0.;                                                                   35P     27
126,1,1,0,0,1,0,0.,0.,0.266666666666667,0.266666666666667,1.,1.,      37P     28
1.4,1.5,0.,1.8,1.5,0.,0.,0.266666666666667,0.,0.,0.;                  37P     29
126,8,2,0,1,0,0,-3.14159265358979,-3.14159265358979,                  39P     30
-3.14159265358979,-1.5707963267949,-1.5707963267949,0.,0.,            39P     31
1.5707963267949,1.5707963267949,3.14159265358979,                     39P     32
3.14159265358979,3.14159265358979,1.,0.707106781186548,1.,            39P     33
0.707106781186548,1.,0.707106781186548,1.,0.707106781186548,1.,       39P     34
1.8,1.5,-1.83697019872103D-16,1.8,1.5,-1.5,1.8,                       39P     35
-9.18485099360515D-17,-1.5,1.8,-1.5,-1.5,1.8,-1.5,0.,1.8,-1.5,        39P     36
1.5,1.8,-9.18485099360515D-17,1.5,1.8,1.5,1.5,1.8,1.5,                39P     37
1.83697019872103D-16,-3.14159265358979,3.14159265358979,0.,0.,        39P     38
0.;                                                                   39P     39
126,8,2,0,1,0,0,-3.14159265358979,-3.14159265358979,                  41P     40
-3.14159265358979,-1.5707963267949,-1.5707963267949,0.,0.,            41P     41
1.5707963267949,1.5707963267949,3.14159265358979,                     41P     42
3.14159265358979,3.14159265358979,1.,0.707106781186547,1.,            41P     43
0.707106781186547,1.,0.707106781186547,1.,0.707106781186547,1.,       41P     44
0.,-1.75,-2.14313189850787D-16,0.,-1.75,-1.75,0.,                     41P     45
1.07156594925393D-16,-1.75,0.,1.75,-1.75,0.,1.75,0.,0.,1.75,          41P     46
1.75,0.,1.07156594925393D-16,1.75,0.,-1.75,1.75,0.,-1.75,             41P     47
2.14313189850787D-16,-3.14159265358979,3.14159265358979,0.,0.,        41P     48
0.;                                                                   41P     49
126,1,1,0,0,1,0,0.,0.,0.8,0.8,1.,1.,0.,-1.75,0.,1.4,-1.75,0.,0.,      43P     50
0.8,0.,0.,0.;                                                         43P     51
126,8,2,0,1,0,0,-3.14159265358979,-3.14159265358979,                  45P     52
-3.14159265358979,-1.5707963267949,-1.5707963267949,0.,0.,            45P     53
1.5707963267949,1.5707963267949,3.14159265358979,                     45P     54
3.14159265358979,3.14159265358979,1.,0.707106781186547,1.,            45P     55
0.707106781186547,1.,0.707106781186547,1.,0.707106781186547,1.,       45P     56
1.4,-1.75,-2.14313189850787D-16,1.4,-1.75,-1.75,1.4,                  45P     57
1.07156594925393D-16,-1.75,1.4,1.75,-1.75,1.4,1.75,0.,1.4,1.75,       45P     58
1.75,1.4,1.07156594925393D-16,1.75,1.4,-1.75,1.75,1.4,-1.75,          45P     59
2.14313189850787D-16,-3.14159265358979,3.14159265358979,0.,0.,        45P     60
0.;                                                                   45P     61
126,8,2,0,1,0,0,-3.14159265358979,-3.14159265358979,                  47P     62
-3.14159265358979,-1.5707963267949,-1.5707963267949,0.,0.,            47P     63
1.5707963267949,1.5707963267949,3.14159265358979,                     47P     64
3.14159265358979,3.14159265358979,1.,0.707106781186548,1.,            47P     65
0.707106781186547,1.,0.707106781186547,1.,0.707106781186548,1.,       47P     66
1.8,-2.,-2.44929359829471D-16,1.8,-2.,-2.,1.8,                        47P     67
1.22464679914735D-16,-2.,1.8,2.,-2.,1.8,2.,0.,1.8,2.,2.,1.8,          47P     68
1.22464679914735D-16,2.,1.8,-2.,2.,1.8,-2.,2.44929359829471D-16,      47P     69
-3.14159265358979,3.14159265358979,0.,0.,0.;                          47P     70
126,1,1,0,0,1,0,-0.9,-0.9,0.,0.,1.,1.,1.8,-2.,0.,0.,-2.,0.,-0.9,      49P     71
0.,0.,0.,0.;                                                          49P     72
126,8,2,0,1,0,0,-3.14159265358979,-3.14159265358979,                  51P     73
-3.14159265358979,-1.5707963267949,-1.5707963267949,0.,0.,            51P     74
1.5707963267949,1.5707963267949,3.14159265358979,                     51P     75
3.14159265358979,3.14159265358979,1.,0.707106781186548,1.,            51P     76
0.707106781186547,1.,0.707106781186547,1.,0.707106781186548,1.,       51P     77
0.,-2.,-2.44929359829471D-16,0.,-2.,-2.,0.,1.22464679914735D-16,      51P     78
-2.,0.,2.,-2.,0.,2.,0.,0.,2.,2.,0.,1.22464679914735D-16,2.,0.,        51P     79
-2.,2.,0.,-2.,2.44929359829471D-16,-3.14159265358979,                 51P     80
3.14159265358979,0.,0.,0.;                                            51P     81
128,1,8,1,2,0,1,0,0,1,0.,0.,0.266666666666667,0.266666666666667,      53P     82
-3.14159265358979,-3.14159265358979,-3.14159265358979,                53P     83
-1.5707963267949,-1.5707963267949,0.,0.,1.5707963267949,              53P     84
1.5707963267949,3.14159265358979,3.14159265358979,                    53P     85
3.14159265358979,1.,1.,0.707106781186548,0.707106781186548,1.,        53P     86
1.,0.707106781186548,0.707106781186548,1.,1.,0.707106781186548,       53P     87
0.707106781186548,1.,1.,0.707106781186548,0.707106781186548,1.,       53P     88
1.,1.4,1.5,0.,1.8,1.5,0.,1.4,1.5,1.5,1.8,1.5,1.5,1.4,0.,1.5,1.8,      53P     89
0.,1.5,1.4,-1.5,1.5,1.8,-1.5,1.5,1.4,-1.5,0.,1.8,-1.5,0.,1.4,         53P     90
-1.5,-1.5,1.8,-1.5,-1.5,1.4,0.,-1.5,1.8,0.,-1.5,1.4,1.5,-1.5,         53P     91
1.8,1.5,-1.5,1.4,1.5,0.,1.8,1.5,0.,0.,0.266666666666667,              53P     92
-3.14159265358979,3.14159265358979;                                   53P     93
128,1,8,1,2,0,1,0,0,1,0.,0.,0.8,0.8,-3.14159265358979,                55P     94
-3.14159265358979,-3.14159265358979,-1.5707963267949,                 55P     95
-1.5707963267949,0.,0.,1.5707963267949,1.5707963267949,               55P     96
3.14159265358979,3.14159265358979,3.14159265358979,1.,1.,             55P     97
0.707106781186548,0.707106781186548,1.,1.,0.707106781186548,          55P     98
0.707106781186548,1.,1.,0.707106781186548,0.707106781186548,1.,       55P     99
1.,0.707106781186548,0.707106781186548,1.,1.,0.,-1.75,0.,1.4,         55P    100
-1.75,0.,0.,-1.75,-1.75,1.4,-1.75,-1.75,0.,0.,-1.75,1.4,0.,           55P    101
-1.75,0.,1.75,-1.75,1.4,1.75,-1.75,0.,1.75,0.,1.4,1.75,0.,0.,         55P    102
1.75,1.75,1.4,1.75,1.75,0.,0.,1.75,1.4,0.,1.75,0.,-1.75,1.75,         55P    103
1.4,-1.75,1.75,0.,-1.75,0.,1.4,-1.75,0.,0.,0.8,                       55P    104
-3.14159265358979,3.14159265358979;                                   55P    105
128,1,1,1,1,0,0,1,0,0,-1.751,-1.751,1.751,1.751,-1.751,-1.751,        57P    106
1.751,1.751,1.,1.,1.,1.,1.4,1.751,-1.751,1.4,-1.751,-1.751,1.4,       57P    107
1.751,1.751,1.4,-1.751,1.751,-1.751,1.751,-1.751,1.751;               57P    108
128,1,8,1,2,0,1,0,0,1,0.,0.,0.9,0.9,-3.14159265358979,                59P    109
-3.14159265358979,-3.14159265358979,-1.5707963267949,                 59P    110
-1.5707963267949,0.,0.,1.5707963267949,1.5707963267949,               59P    111
3.14159265358979,3.14159265358979,3.14159265358979,1.,1.,             59P    112
0.707106781186548,0.707106781186548,1.,1.,0.707106781186548,          59P    113
0.707106781186548,1.,1.,0.707106781186548,0.707106781186548,1.,       59P    114
1.,0.707106781186548,0.707106781186548,1.,1.,1.8,-2.,0.,0.,-2.,       59P    115
0.,1.8,-2.,-2.,0.,-2.,-2.,1.8,0.,-2.,0.,0.,-2.,1.8,2.,-2.,0.,2.,      59P    116
-2.,1.8,2.,0.,0.,2.,0.,1.8,2.,2.,0.,2.,2.,1.8,0.,2.,0.,0.,2.,         59P    117
1.8,-2.,2.,0.,-2.,2.,1.8,-2.,0.,0.,-2.,0.,0.,0.9,                     59P    118
-3.14159265358979,3.14159265358979;                                   59P    119
128,1,1,1,1,0,0,1,0,0,-2.001,-2.001,2.001,2.001,-2.001,-2.001,        61P    120
2.001,2.001,1.,1.,1.,1.,1.8,-2.001,-2.001,1.8,2.001,-2.001,1.8,       61P    121
-2.001,2.001,1.8,2.001,2.001,-2.001,2.001,-2.001,2.001;               61P    122
128,1,1,1,1,0,0,1,0,0,-2.001,-2.001,2.001,2.001,-2.001,-2.001,        63P    123
2.001,2.001,1.,1.,1.,1.,0.,2.001,-2.001,0.,-2.001,-2.001,0.,          63P    124
2.001,2.001,0.,-2.001,2.001,-2.001,2.001,-2.001,2.001;                63P    125
502,6,1.4,1.5,-1.83697019872103D-16,1.8,1.5,                          65P    126
-1.83697019872103D-16,0.,-1.75,-2.14313189850787D-16,1.4,-1.75,       65P    127
-2.14313189850787D-16,1.8,-2.,-2.44929359829471D-16,0.,-2.,           65P    128
-2.44929359829471D-16;                                                65P    129
504,9,35,65,1,65,1,37,65,1,65,2,39,65,2,65,2,41,65,3,65,3,43,65,      67P    130
3,65,4,45,65,4,65,4,47,65,5,65,5,49,65,5,65,6,51,65,6,65,6;           67P    131
406,1,8HKörper1;                                                     69P    132
314,79.6078431372549,79.6078431372549,79.6078431372549,19HEdelst      71P    133
ahl - poliert;                                                        71P    134
314,79.6078431372549,79.6078431372549,79.6078431372549,21HEdelst      73P    135
ahl - satiniert;                                                      73P    136
S      1G      3D     74P    136                                        T      1
