                                                                        S      1
,,11HScheibe_t=5,11HScheibe_t=5,7Hunknown,7Hunknown,32,38,7,99,15,,1.,  G      1
10,2HCM,1,0.08,15H20260416.151237,0.001,10000.,7Hunknown,7Hunknown,11,0,G      2
15H20260416.112837;                                                     G      3
     186       1                                                00000000D      1
     186             -73       1       0                               0D      2
     514       2                                                00010000D      3
     514                       1       1                               0D      4
     510       3                                                00010000D      5
     510             -73       1       1                               0D      6
     510       4                                                00010000D      7
     510             -73       1       1                               0D      8
     510       5                                                00010000D      9
     510             -73       1       1                               0D     10
     510       6                                                00010000D     11
     510             -73       1       1                               0D     12
     510       7                                                00010000D     13
     510             -73       1       1                               0D     14
     510       8                                                00010000D     15
     510             -73       1       1                               0D     16
     508       9                                                00010000D     17
     508                       1       1                               0D     18
     508      10                                                00010000D     19
     508                       1       1                               0D     20
     508      11                                                00010000D     21
     508                       1       1                               0D     22
     508      12                                                00010000D     23
     508                       1       1                               0D     24
     508      13                                                00010000D     25
     508                       1       1                               0D     26
     508      14                                                00010000D     27
     508                       1       1                               0D     28
     508      15                                                00010000D     29
     508                       1       1                               0D     30
     508      16                                                00010000D     31
     508                       1       1                               0D     32
     508      17                                                00010000D     33
     508                       1       1                               0D     34
     126      18                                                00010000D     35
     126       0              10       0                               0D     36
     126      28                                                00010000D     37
     126       0               2       0                               0D     38
     126      30                                                00010000D     39
     126       0              10       0                               0D     40
     126      40                                                00010000D     41
     126       0               7       0                               0D     42
     126      47                                                00010000D     43
     126       0               7       0                               0D     44
     126      54                                                00010000D     45
     126       0              10       0                               0D     46
     126      64                                                00010000D     47
     126       0               2       0                               0D     48
     126      66                                                00010000D     49
     126       0              10       0                               0D     50
     126      76                                                00010000D     51
     126       0              10       0                               0D     52
     126      86                                                00010000D     53
     126       0               3       0                               0D     54
     128      89                                                00010000D     55
     128       0     -73      12       0                               0D     56
     128     101                                                00010000D     57
     128       0     -73       3       0                               0D     58
     128     104                                                00010000D     59
     128       0     -73      12       0                               0D     60
     128     116                                                00010000D     61
     128       0     -73      13       0                               0D     62
     128     129                                                00010000D     63
     128       0     -73       3       0                               0D     64
     128     132                                                00010000D     65
     128       0     -73       3       0                               0D     66
     502     135                                                00010000D     67
     502                       4       1                               0D     68
     504     139                                                00010001D     69
     504                       3       1                               0D     70
     406     142                                                00000000D     71
     406                       1      15                               0D     72
     314     143                                                00000200D     73
     314                       2       0                               0D     74
186,3,1,0,0,1,71;                                                      1P      1
514,6,5,1,7,1,9,1,11,1,13,1,15,1;                                      3P      2
510,55,1,1,17;                                                         5P      3
510,57,2,1,19,21;                                                      7P      4
510,59,1,1,23;                                                         9P      5
510,61,1,1,25;                                                        11P      6
510,63,2,1,27,29;                                                     13P      7
510,65,2,1,31,33;                                                     15P      8
508,4,0,69,1,0,0,0,69,2,1,0,0,69,3,1,0,0,69,2,0,0;                    17P      9
508,2,0,69,4,0,0,0,69,5,0,0;                                          19P     10
508,1,0,69,3,0,0;                                                     21P     11
508,4,0,69,6,0,0,0,69,7,1,0,0,69,8,1,0,0,69,7,0,0;                    23P     12
508,5,0,69,9,0,0,0,69,10,1,0,0,69,5,1,0,0,69,4,1,0,0,69,10,0,0;       25P     13
508,1,0,69,9,1,0;                                                     27P     14
508,1,0,69,6,1,0;                                                     29P     15
508,1,0,69,1,1,0;                                                     31P     16
508,1,0,69,8,0,0;                                                     33P     17
126,8,2,0,1,0,0,-3.14159265358979,-3.14159265358979,                  35P     18
-3.14159265358979,-1.5707963267949,-1.5707963267949,0.,0.,            35P     19
1.5707963267949,1.5707963267949,3.14159265358979,                     35P     20
3.14159265358979,3.14159265358979,1.,0.707106781186548,1.,            35P     21
0.707106781186548,1.,0.707106781186548,1.,0.707106781186548,1.,       35P     22
0.,0.95,-1.16341445918999D-16,0.,0.95,-0.95,0.,                       35P     23
-5.81707229594993D-17,-0.95,0.,-0.95,-0.95,0.,-0.95,0.,0.,-0.95,      35P     24
0.95,0.,-5.81707229594993D-17,0.95,0.,0.95,0.95,0.,0.95,              35P     25
1.16341445918999D-16,-3.14159265358979,3.14159265358979,0.,0.,        35P     26
0.;                                                                   35P     27
126,1,1,0,0,1,0,0.,0.,0.105263157894737,0.105263157894737,1.,1.,      37P     28
0.,0.95,0.,0.1,0.95,0.,0.,0.105263157894737,0.,0.,0.;                 37P     29
126,8,2,0,1,0,0,-3.14159265358979,-3.14159265358979,                  39P     30
-3.14159265358979,-1.5707963267949,-1.5707963267949,0.,0.,            39P     31
1.5707963267949,1.5707963267949,3.14159265358979,                     39P     32
3.14159265358979,3.14159265358979,1.,0.707106781186548,1.,            39P     33
0.707106781186548,1.,0.707106781186548,1.,0.707106781186548,1.,       39P     34
0.1,0.95,-1.16341445918999D-16,0.1,0.95,-0.95,0.1,                    39P     35
-5.81707229594993D-17,-0.95,0.1,-0.95,-0.95,0.1,-0.95,0.,0.1,         39P     36
-0.95,0.95,0.1,-5.81707229594993D-17,0.95,0.1,0.95,0.95,0.1,          39P     37
0.95,1.16341445918999D-16,-3.14159265358979,3.14159265358979,0.,      39P     38
0.,0.;                                                                39P     39
126,4,2,0,0,0,0,-1.22464679914735D-16,-1.22464679914735D-16,          41P     40
-1.22464679914735D-16,1.5707963267949,1.5707963267949,                41P     41
3.14159265358979,3.14159265358979,3.14159265358979,1.,                41P     42
0.707106781186548,1.,0.707106781186548,1.,0.1,1.5,                    41P     43
-1.83697019872103D-16,0.1,1.5,1.5,0.1,9.18485099360515D-17,1.5,       41P     44
0.1,-1.5,1.5,0.1,-1.5,1.83697019872103D-16,                           41P     45
-1.22464679914735D-16,3.14159265358979,0.,0.,0.;                      41P     46
126,4,2,0,0,0,0,3.14159265358979,3.14159265358979,                    43P     47
3.14159265358979,4.71238898038469,4.71238898038469,                   43P     48
6.28318530717959,6.28318530717959,6.28318530717959,1.,                43P     49
0.707106781186548,1.,0.707106781186547,1.,0.1,-1.5,                   43P     50
1.83697019872103D-16,0.1,-1.5,-1.5,0.1,-2.75545529808154D-16,         43P     51
-1.5,0.1,1.5,-1.5,0.1,1.5,-3.67394039744206D-16,                      43P     52
3.14159265358979,6.28318530717959,0.,0.,0.;                           43P     53
126,8,2,0,1,0,0,-3.14159265358979,-3.14159265358979,                  45P     54
-3.14159265358979,-1.5707963267949,-1.5707963267949,0.,0.,            45P     55
1.5707963267949,1.5707963267949,3.14159265358979,                     45P     56
3.14159265358979,3.14159265358979,1.,0.707106781186548,1.,            45P     57
0.707106781186548,1.,0.707106781186548,1.,0.707106781186548,1.,       45P     58
0.5,-0.75,9.18485099360515D-17,0.5,-0.75,0.75,0.5,                    45P     59
4.59242549680257D-17,0.75,0.5,0.75,0.75,0.5,0.75,0.,0.5,0.75,         45P     60
-0.75,0.5,4.59242549680257D-17,-0.75,0.5,-0.75,-0.75,0.5,-0.75,       45P     61
-9.18485099360515D-17,-3.14159265358979,3.14159265358979,0.,0.,       45P     62
0.;                                                                   45P     63
126,1,1,0,0,1,0,-0.666666666666667,-0.666666666666667,0.,0.,1.,       47P     64
1.,0.5,-0.75,0.,0.,-0.75,0.,-0.666666666666667,0.,0.,0.,0.;           47P     65
126,8,2,0,1,0,0,-3.14159265358979,-3.14159265358979,                  49P     66
-3.14159265358979,-1.5707963267949,-1.5707963267949,0.,0.,            49P     67
1.5707963267949,1.5707963267949,3.14159265358979,                     49P     68
3.14159265358979,3.14159265358979,1.,0.707106781186548,1.,            49P     69
0.707106781186548,1.,0.707106781186548,1.,0.707106781186548,1.,       49P     70
0.,-0.75,9.18485099360515D-17,0.,-0.75,0.75,0.,                       49P     71
4.59242549680257D-17,0.75,0.,0.75,0.75,0.,0.75,0.,0.,0.75,-0.75,      49P     72
0.,4.59242549680257D-17,-0.75,0.,-0.75,-0.75,0.,-0.75,                49P     73
-9.18485099360515D-17,-3.14159265358979,3.14159265358979,0.,0.,       49P     74
0.;                                                                   49P     75
126,8,2,0,1,0,0,-3.14159265358979,-3.14159265358979,                  51P     76
-3.14159265358979,-1.5707963267949,-1.5707963267949,0.,0.,            51P     77
1.5707963267949,1.5707963267949,3.14159265358979,                     51P     78
3.14159265358979,3.14159265358979,1.,0.707106781186548,1.,            51P     79
0.707106781186548,1.,0.707106781186548,1.,0.707106781186548,1.,       51P     80
0.5,-1.5,-1.83697019872103D-16,0.5,-1.5,-1.5,0.5,                     51P     81
9.18485099360515D-17,-1.5,0.5,1.5,-1.5,0.5,1.5,0.,0.5,1.5,1.5,        51P     82
0.5,9.18485099360515D-17,1.5,0.5,-1.5,1.5,0.5,-1.5,                   51P     83
1.83697019872103D-16,-3.14159265358979,3.14159265358979,0.,0.,        51P     84
0.;                                                                   51P     85
126,1,1,0,0,1,0,-0.333333333333333,-0.333333333333333,                53P     86
-0.0666666666666667,-0.0666666666666667,1.,1.,0.5,-1.5,0.,0.1,        53P     87
-1.5,0.,-0.333333333333333,-0.0666666666666667,0.,0.,0.;              53P     88
128,1,8,1,2,0,1,0,0,1,0.,0.,0.105263157894737,0.105263157894737,      55P     89
-3.14159265358979,-3.14159265358979,-3.14159265358979,                55P     90
-1.5707963267949,-1.5707963267949,0.,0.,1.5707963267949,              55P     91
1.5707963267949,3.14159265358979,3.14159265358979,                    55P     92
3.14159265358979,1.,1.,0.707106781186548,0.707106781186548,1.,        55P     93
1.,0.707106781186548,0.707106781186548,1.,1.,0.707106781186548,       55P     94
0.707106781186548,1.,1.,0.707106781186548,0.707106781186548,1.,       55P     95
1.,0.1,0.95,0.,0.,0.95,0.,0.1,0.95,0.95,0.,0.95,0.95,0.1,0.,          55P     96
0.95,0.,0.,0.95,0.1,-0.95,0.95,0.,-0.95,0.95,0.1,-0.95,0.,0.,         55P     97
-0.95,0.,0.1,-0.95,-0.95,0.,-0.95,-0.95,0.1,0.,-0.95,0.,0.,           55P     98
-0.95,0.1,0.95,-0.95,0.,0.95,-0.95,0.1,0.95,0.,0.,0.95,0.,0.,         55P     99
0.105263157894737,-3.14159265358979,3.14159265358979;                 55P    100
128,1,1,1,1,0,0,1,0,0,-1.501,-1.501,1.501,1.501,-1.501,-1.501,        57P    101
1.501,1.501,1.,1.,1.,1.,0.1,1.501,-1.501,0.1,-1.501,-1.501,0.1,       57P    102
1.501,1.501,0.1,-1.501,1.501,-1.501,1.501,-1.501,1.501;               57P    103
128,1,8,1,2,0,1,0,0,1,0.,0.,0.666666666666667,0.666666666666667,      59P    104
-3.14159265358979,-3.14159265358979,-3.14159265358979,                59P    105
-1.5707963267949,-1.5707963267949,0.,0.,1.5707963267949,              59P    106
1.5707963267949,3.14159265358979,3.14159265358979,                    59P    107
3.14159265358979,1.,1.,0.707106781186548,0.707106781186548,1.,        59P    108
1.,0.707106781186548,0.707106781186548,1.,1.,0.707106781186548,       59P    109
0.707106781186548,1.,1.,0.707106781186548,0.707106781186548,1.,       59P    110
1.,0.,-0.75,0.,0.5,-0.75,0.,0.,-0.75,-0.75,0.5,-0.75,-0.75,0.,        59P    111
0.,-0.75,0.5,0.,-0.75,0.,0.75,-0.75,0.5,0.75,-0.75,0.,0.75,0.,        59P    112
0.5,0.75,0.,0.,0.75,0.75,0.5,0.75,0.75,0.,0.,0.75,0.5,0.,0.75,        59P    113
0.,-0.75,0.75,0.5,-0.75,0.75,0.,-0.75,0.,0.5,-0.75,0.,0.,             59P    114
0.666666666666667,-3.14159265358979,3.14159265358979;                 59P    115
128,1,8,1,2,0,1,0,0,1,0.0666666666666667,0.0666666666666667,          61P    116
0.333333333333333,0.333333333333333,-3.14159265358979,                61P    117
-3.14159265358979,-3.14159265358979,-1.5707963267949,                 61P    118
-1.5707963267949,0.,0.,1.5707963267949,1.5707963267949,               61P    119
3.14159265358979,3.14159265358979,3.14159265358979,1.,1.,             61P    120
0.707106781186548,0.707106781186548,1.,1.,0.707106781186548,          61P    121
0.707106781186548,1.,1.,0.707106781186548,0.707106781186548,1.,       61P    122
1.,0.707106781186548,0.707106781186548,1.,1.,0.5,-1.5,0.,0.1,         61P    123
-1.5,0.,0.5,-1.5,-1.5,0.1,-1.5,-1.5,0.5,0.,-1.5,0.1,0.,-1.5,0.5,      61P    124
1.5,-1.5,0.1,1.5,-1.5,0.5,1.5,0.,0.1,1.5,0.,0.5,1.5,1.5,0.1,1.5,      61P    125
1.5,0.5,0.,1.5,0.1,0.,1.5,0.5,-1.5,1.5,0.1,-1.5,1.5,0.5,-1.5,0.,      61P    126
0.1,-1.5,0.,0.0666666666666667,0.333333333333333,                     61P    127
-3.14159265358979,3.14159265358979;                                   61P    128
128,1,1,1,1,0,0,1,0,0,-1.501,-1.501,1.501,1.501,-1.501,-1.501,        63P    129
1.501,1.501,1.,1.,1.,1.,0.5,-1.501,-1.501,0.5,1.501,-1.501,0.5,       63P    130
-1.501,1.501,0.5,1.501,1.501,-1.501,1.501,-1.501,1.501;               63P    131
128,1,1,1,1,0,0,1,0,0,-0.951,-0.951,0.951,0.951,-0.951,-0.951,        65P    132
0.951,0.951,1.,1.,1.,1.,0.,0.951,-0.951,0.,-0.951,-0.951,0.,          65P    133
0.951,0.951,0.,-0.951,0.951,-0.951,0.951,-0.951,0.951;                65P    134
502,7,0.,0.95,-1.16341445918999D-16,0.1,0.95,                         67P    135
-1.16341445918999D-16,0.1,1.5,-1.83697019872103D-16,0.1,-1.5,0.,      67P    136
0.5,-0.75,-9.18485099360515D-17,0.,-0.75,-9.18485099360515D-17,       67P    137
0.5,-1.5,-1.83697019872103D-16;                                       67P    138
504,10,35,67,1,67,1,37,67,1,67,2,39,67,2,67,2,41,67,3,67,4,43,        69P    139
67,4,67,3,45,67,5,67,5,47,67,5,67,6,49,67,6,67,6,51,67,7,67,7,        69P    140
53,67,7,67,4;                                                         69P    141
406,1,8HKörper4;                                                     71P    142
314,62.7450980392157,62.7450980392157,62.7450980392157,17HStahl       73P    143
- satiniert;                                                          73P    144
S      1G      3D     74P    144                                        T      1
