                                                                        S      1
,,8HWelle_V2,8HWelle_V2,7Hunknown,7Hunknown,32,38,7,99,15,,1.,10,2HCM,1,G      1
0.08,15H20260416.151322,0.001,10000.,7Hunknown,7Hunknown,11,0,15H2026041G      2
4.123532;                                                               G      3
     186       1                                                00000000D      1
     186             -59       1       0                               0D      2
     514       2                                                00010000D      3
     514                       1       1                               0D      4
     510       3                                                00010000D      5
     510             -59       1       1                               0D      6
     510       4                                                00010000D      7
     510             -59       1       1                               0D      8
     510       5                                                00010000D      9
     510             -59       1       1                               0D     10
     510       6                                                00010000D     11
     510             -59       1       1                               0D     12
     510       7                                                00010000D     13
     510             -59       1       1                               0D     14
     508       8                                                00010000D     15
     508                       1       1                               0D     16
     508       9                                                00010000D     17
     508                       2       1                               0D     18
     508      11                                                00010000D     19
     508                       1       1                               0D     20
     508      12                                                00010000D     21
     508                       1       1                               0D     22
     508      13                                                00010000D     23
     508                       1       1                               0D     24
     126      14                                                00010000D     25
     126       0               9       0                               0D     26
     126      23                                                00010000D     27
     126       0               4       0                               0D     28
     126      27                                                00010000D     29
     126       0               9       0                               0D     30
     126      36                                                00010000D     31
     126       0               5       0                               0D     32
     126      41                                                00010000D     33
     126       0               6       0                               0D     34
     126      47                                                00010000D     35
     126       0               5       0                               0D     36
     126      52                                                00010000D     37
     126       0              10       0                               0D     38
     126      62                                                00010000D     39
     126       0              10       0                               0D     40
     126      72                                                00010000D     41
     126       0               3       0                               0D     42
     128      75                                                00010000D     43
     128       0     -59      17       0                               0D     44
     128      92                                                00010000D     45
     128       0     -59      28       0                               0D     46
     128     120                                                00010000D     47
     128       0     -59       4       0                               0D     48
     128     124                                                00010000D     49
     128       0     -59      15       0                               0D     50
     128     139                                                00010000D     51
     128       0     -59       3       0                               0D     52
     502     142                                                00010000D     53
     502                       4       1                               0D     54
     504     146                                                00010001D     55
     504                       2       1                               0D     56
     406     148                                                00000000D     57
     406                       1      15                               0D     58
     314     149                                                00000200D     59
     314                       2       0                               0D     60
186,3,1,0,0,1,57;                                                      1P      1
514,5,5,1,7,1,9,1,11,1,13,1;                                           3P      2
510,43,1,1,15;                                                         5P      3
510,45,1,1,17;                                                         7P      4
510,47,1,1,19;                                                         9P      5
510,49,1,1,21;                                                        11P      6
510,51,1,1,23;                                                        13P      7
508,5,0,55,1,0,0,0,55,2,1,0,0,55,3,1,0,0,55,4,1,0,0,55,2,0,0;         15P      8
508,6,0,55,3,0,0,0,55,4,0,0,0,55,5,1,0,0,55,6,1,0,0,55,7,1,0,0,       17P      9
55,5,0,0;                                                             17P     10
508,1,0,55,1,1,0;                                                     19P     11
508,5,0,55,8,0,0,0,55,9,1,0,0,55,6,0,0,0,55,7,0,0,0,55,9,0,0;         21P     12
508,1,0,55,8,1,0;                                                     23P     13
126,8,2,0,1,0,0,-3.14159265358979,-3.14159265358979,                  25P     14
-3.14159265358979,-1.5707963267949,-1.5707963267949,0.,0.,            25P     15
1.5707963267949,1.5707963267949,3.14159265358979,                     25P     16
3.14159265358979,3.14159265358979,1.,0.707106781186547,1.,            25P     17
0.707106781186547,1.,0.707106781186547,1.,0.707106781186547,1.,       25P     18
-6.25,-0.75,-11.25,-7.,-0.75,-11.25,-7.,4.59242549680257D-17,         25P     19
-11.25,-7.,0.75,-11.25,-6.25,0.75,-11.25,-5.5,0.75,-11.25,-5.5,       25P     20
4.59242549680257D-17,-11.25,-5.5,-0.75,-11.25,-6.25,-0.75,            25P     21
-11.25,-3.14159265358979,3.14159265358979,0.,0.,0.;                   25P     22
126,1,1,0,0,1,0,-11.6666666666667,-11.6666666666667,                  27P     23
1.77988153794781D-16,1.77988153794781D-16,1.,1.,-6.25,-0.75,          27P     24
-11.25,-6.25,-0.75,-2.49999999999998,-11.6666666666667,               27P     25
1.77988153794781D-16,0.,0.,0.;                                        27P     26
126,6,2,0,0,0,0,-3.14159265358979,-3.14159265358979,                  29P     27
-3.14159265358979,-1.5707963267949,-1.5707963267949,0.,0.,            29P     28
1.5707963267949,1.5707963267949,1.5707963267949,1.,                   29P     29
0.707106781186547,1.,0.707106781186547,1.,0.707106781186547,1.,       29P     30
-6.25,-0.75,-2.49999999999998,-7.,-0.75,-2.49999999999998,-7.,        29P     31
4.59242549680257D-17,-2.49999999999998,-7.,0.75,                      29P     32
-2.49999999999998,-6.25,0.75,-2.49999999999998,-5.5,0.75,             29P     33
-2.49999999999998,-5.5,4.59242549680257D-17,-2.49999999999998,        29P     34
-3.14159265358979,1.5707963267949,0.,0.,0.;                           29P     35
126,2,2,0,0,0,0,1.5707963267949,1.5707963267949,1.5707963267949,      31P     36
3.14159265358979,3.14159265358979,3.14159265358979,1.,                31P     37
0.707106781186547,1.,-5.5,4.59242549680257D-17,                       31P     38
-2.49999999999998,-5.5,-0.75,-2.49999999999998,-6.25,-0.75,           31P     39
-2.49999999999998,1.5707963267949,3.14159265358979,0.,0.,0.;          31P     40
126,2,2,0,0,0,0,1.5707963267949,1.5707963267949,1.5707963267949,      33P     41
3.14159265358979,3.14159265358979,3.14159265358979,1.,                33P     42
0.707106781186548,1.,-5.5,9.18485099360515D-17,                       33P     43
-2.49999999999998,-5.5,9.18485099360515D-17,-0.750000000000001,       33P     44
-3.75000000000002,9.18485099360515D-17,-0.75,1.5707963267949,         33P     45
3.14159265358979,0.,0.,0.;                                            33P     46
126,2,2,0,0,0,0,1.5707963267949,1.5707963267949,1.5707963267949,      35P     47
3.14159265358979,3.14159265358979,3.14159265358979,1.,                35P     48
0.707106781186548,1.,-3.75000000000002,4.59242549680257D-17,          35P     49
-0.75,-3.75000000000002,-0.75,-0.75,-3.75000000000002,-0.75,          35P     50
-9.18485099360515D-17,1.5707963267949,3.14159265358979,0.,0.,0.;      35P     51
126,6,2,0,0,0,0,-3.14159265358979,-3.14159265358979,                  37P     52
-3.14159265358979,-1.5707963267949,-1.5707963267949,0.,0.,            37P     53
1.5707963267949,1.5707963267949,1.5707963267949,1.,                   37P     54
0.707106781186548,1.,0.707106781186548,1.,0.707106781186548,1.,       37P     55
-3.75000000000002,-0.75,9.18485099360515D-17,-3.75000000000002,       37P     56
-0.75,0.75,-3.75000000000002,4.59242549680257D-17,0.75,               37P     57
-3.75000000000002,0.75,0.75,-3.75000000000002,0.75,0.,                37P     58
-3.75000000000002,0.75,-0.75,-3.75000000000002,                       37P     59
4.59242549680257D-17,-0.75,-3.14159265358979,1.5707963267949,0.,      37P     60
0.,0.;                                                                37P     61
126,8,2,0,1,0,0,-3.14159265358979,-3.14159265358979,                  39P     62
-3.14159265358979,-1.5707963267949,-1.5707963267949,0.,0.,            39P     63
1.5707963267949,1.5707963267949,3.14159265358979,                     39P     64
3.14159265358979,3.14159265358979,1.,0.707106781186548,1.,            39P     65
0.707106781186548,1.,0.707106781186548,1.,0.707106781186548,1.,       39P     66
9.75,-0.75,-9.18485099360515D-17,9.75,-0.75,-0.75,9.75,               39P     67
4.59242549680257D-17,-0.75,9.75,0.75,-0.75,9.75,0.75,0.,9.75,         39P     68
0.75,0.75,9.75,4.59242549680257D-17,0.75,9.75,-0.75,0.75,9.75,        39P     69
-0.75,9.18485099360515D-17,-3.14159265358979,3.14159265358979,        39P     70
0.,0.,0.;                                                             39P     71
126,1,1,0,0,1,0,-13.,-13.,5.00000000000003,5.00000000000003,1.,       41P     72
1.,9.75,-0.75,0.,-3.75000000000002,-0.75,0.,-13.,                     41P     73
5.00000000000003,0.,0.,0.;                                            41P     74
128,1,8,1,2,0,1,0,0,1,-1.77988153794781D-16,                          43P     75
-1.77988153794781D-16,11.6666666666667,11.6666666666667,              43P     76
-3.14159265358979,-3.14159265358979,-3.14159265358979,                43P     77
-1.5707963267949,-1.5707963267949,0.,0.,1.5707963267949,              43P     78
1.5707963267949,3.14159265358979,3.14159265358979,                    43P     79
3.14159265358979,1.,1.,0.707106781186548,0.707106781186548,1.,        43P     80
1.,0.707106781186548,0.707106781186548,1.,1.,0.707106781186548,       43P     81
0.707106781186548,1.,1.,0.707106781186548,0.707106781186548,1.,       43P     82
1.,-6.25,-0.75,-11.25,-6.25,-0.75,-2.49999999999998,-7.,-0.75,        43P     83
-11.25,-7.,-0.75,-2.49999999999998,-7.,0.,-11.25,-7.,0.,              43P     84
-2.49999999999998,-7.,0.75,-11.25,-7.,0.75,-2.49999999999998,         43P     85
-6.25,0.75,-11.25,-6.25,0.75,-2.49999999999998,-5.5,0.75,-11.25,      43P     86
-5.5,0.75,-2.49999999999998,-5.5,0.,-11.25,-5.5,0.,                   43P     87
-2.49999999999998,-5.5,-0.75,-11.25,-5.5,-0.75,                       43P     88
-2.49999999999998,-6.25,-0.75,-11.25,-6.25,-0.75,                     43P     89
-2.49999999999998,-1.77988153794781D-16,11.6666666666667,             43P     90
-3.14159265358979,3.14159265358979;                                   43P     91
128,8,2,2,2,1,0,0,1,0,-3.14159265358979,-3.14159265358979,            45P     92
-3.14159265358979,-1.5707963267949,-1.5707963267949,0.,0.,            45P     93
1.5707963267949,1.5707963267949,3.14159265358979,                     45P     94
3.14159265358979,3.14159265358979,-3.14159265358979,                  45P     95
-3.14159265358979,-3.14159265358979,-1.5707963267949,                 45P     96
-1.5707963267949,-1.5707963267949,1.,0.707106781186547,1.,            45P     97
0.707106781186547,1.,0.707106781186547,1.,0.707106781186547,1.,       45P     98
0.707106781186548,0.5,0.707106781186548,0.5,0.707106781186548,        45P     99
0.5,0.707106781186548,0.5,0.707106781186548,1.,                       45P    100
0.707106781186547,1.,0.707106781186547,1.,0.707106781186547,1.,       45P    101
0.707106781186547,1.,-3.75000000000002,-9.18485099360515D-17,         45P    102
-0.75,-3.75000000000002,-0.75,-0.75,-3.75000000000002,-0.75,0.,       45P    103
-3.75000000000002,-0.75,0.75,-3.75000000000002,0.,0.75,               45P    104
-3.75000000000002,0.75,0.75,-3.75000000000002,0.75,0.,                45P    105
-3.75000000000002,0.75,-0.75,-3.75000000000002,                       45P    106
9.18485099360515D-17,-0.75,-5.5,-9.18485099360515D-17,                45P    107
-0.750000000000001,-5.5,-0.75,-0.750000000000001,-6.25,-0.75,         45P    108
-8.88178419700125D-16,-7.,-0.75,0.749999999999999,-7.,0.,             45P    109
0.749999999999999,-7.,0.75,0.749999999999999,-6.25,0.75,              45P    110
-8.88178419700125D-16,-5.5,0.75,-0.750000000000001,-5.5,              45P    111
9.18485099360515D-17,-0.750000000000001,-5.5,                         45P    112
-9.18485099360515D-17,-2.49999999999998,-5.5,-0.75,                   45P    113
-2.49999999999998,-6.25,-0.75,-2.49999999999998,-7.,-0.75,            45P    114
-2.49999999999998,-7.,0.,-2.49999999999998,-7.,0.75,                  45P    115
-2.49999999999998,-6.25,0.75,-2.49999999999998,-5.5,0.75,             45P    116
-2.49999999999998,-5.5,9.18485099360515D-17,-2.49999999999998,        45P    117
-3.14159265358979,3.14159265358979,-3.14159265358979,                 45P    118
-1.5707963267949;                                                     45P    119
128,1,1,1,1,0,0,1,0,0,-0.751,-0.751,0.751,0.751,-0.751,-0.751,        47P    120
0.751,0.751,1.,1.,1.,1.,-5.499,0.751,-11.25,-5.499,-0.751,            47P    121
-11.25,-7.001,0.751,-11.25,-7.001,-0.751,-11.25,-0.751,0.751,         47P    122
-0.751,0.751;                                                         47P    123
128,1,8,1,2,0,1,0,0,1,-5.00000000000003,-5.00000000000003,13.,        49P    124
13.,-3.14159265358979,-3.14159265358979,-3.14159265358979,            49P    125
-1.5707963267949,-1.5707963267949,0.,0.,1.5707963267949,              49P    126
1.5707963267949,3.14159265358979,3.14159265358979,                    49P    127
3.14159265358979,1.,1.,0.707106781186548,0.707106781186548,1.,        49P    128
1.,0.707106781186548,0.707106781186548,1.,1.,0.707106781186548,       49P    129
0.707106781186548,1.,1.,0.707106781186548,0.707106781186548,1.,       49P    130
1.,9.75,-0.75,0.,-3.75000000000002,-0.75,0.,9.75,-0.75,-0.75,         49P    131
-3.75000000000002,-0.75,-0.75,9.75,0.,-0.75,-3.75000000000002,        49P    132
0.,-0.75,9.75,0.75,-0.75,-3.75000000000002,0.75,-0.75,9.75,0.75,      49P    133
0.,-3.75000000000002,0.75,0.,9.75,0.75,0.75,-3.75000000000002,        49P    134
0.75,0.75,9.75,0.,0.75,-3.75000000000002,0.,0.75,9.75,-0.75,          49P    135
0.75,-3.75000000000002,-0.75,0.75,9.75,-0.75,0.,                      49P    136
-3.75000000000002,-0.75,0.,-5.00000000000003,13.,                     49P    137
-3.14159265358979,3.14159265358979;                                   49P    138
128,1,1,1,1,0,0,1,0,0,-0.751,-0.751,0.751,0.751,-0.751,-0.751,        51P    139
0.751,0.751,1.,1.,1.,1.,9.75,-0.751,-0.751,9.75,0.751,-0.751,         51P    140
9.75,-0.751,0.751,9.75,0.751,0.751,-0.751,0.751,-0.751,0.751;         51P    141
502,6,-6.25,-0.75,-11.25,-6.25,-0.75,-2.49999999999998,-5.5,          53P    142
9.18485099360515D-17,-2.49999999999998,-3.75000000000002,             53P    143
9.18485099360515D-17,-0.75,-3.75000000000002,-0.75,                   53P    144
-9.18485099360515D-17,9.75,-0.75,-9.18485099360515D-17;               53P    145
504,9,25,53,1,53,1,27,53,1,53,2,29,53,2,53,3,31,53,3,53,2,33,53,      55P    146
3,53,4,35,53,4,53,5,37,53,5,53,4,39,53,6,53,6,41,53,6,53,5;           55P    147
406,1,8HKörper4;                                                     57P    148
314,79.6078431372549,79.6078431372549,79.6078431372549,21HEdelst      59P    149
ahl - satiniert;                                                      59P    150
S      1G      3D     60P    150                                        T      1
