                                                                        S      1
,,8HWelle_V1,8HWelle_V1,7Hunknown,7Hunknown,32,38,7,99,15,,1.,10,2HCM,1,G      1
0.08,15H20260416.151249,0.001,10000.,7Hunknown,7Hunknown,11,0,15H2026041G      2
6.081920;                                                               G      3
     186       1                                                00000000D      1
     186             -59       1       0                               0D      2
     514       2                                                00010000D      3
     514                       1       1                               0D      4
     510       3                                                00010000D      5
     510             -59       1       1                               0D      6
     510       4                                                00010000D      7
     510             -59       1       1                               0D      8
     510       5                                                00010000D      9
     510             -59       1       1                               0D     10
     510       6                                                00010000D     11
     510             -59       1       1                               0D     12
     510       7                                                00010000D     13
     510             -59       1       1                               0D     14
     508       8                                                00010000D     15
     508                       1       1                               0D     16
     508       9                                                00010000D     17
     508                       1       1                               0D     18
     508      10                                                00010000D     19
     508                       2       1                               0D     20
     508      12                                                00010000D     21
     508                       1       1                               0D     22
     508      13                                                00010000D     23
     508                       1       1                               0D     24
     126      14                                                00010000D     25
     126       0              11       0                               0D     26
     126      25                                                00010000D     27
     126       0              10       0                               0D     28
     126      35                                                00010000D     29
     126       0               9       0                               0D     30
     126      44                                                00010000D     31
     126       0               5       0                               0D     32
     126      49                                                00010000D     33
     126       0               6       0                               0D     34
     126      55                                                00010000D     35
     126       0               5       0                               0D     36
     126      60                                                00010000D     37
     126       0               8       0                               0D     38
     126      68                                                00010000D     39
     126       0               4       0                               0D     40
     126      72                                                00010000D     41
     126       0               2       0                               0D     42
     128      74                                                00010000D     43
     128       0     -59       4       0                               0D     44
     128      78                                                00010000D     45
     128       0     -59       3       0                               0D     46
     128      81                                                00010000D     47
     128       0     -59      26       0                               0D     48
     128     107                                                00010000D     49
     128       0     -59      17       0                               0D     50
     128     124                                                00010000D     51
     128       0     -59      13       0                               0D     52
     502     137                                                00010000D     53
     502                       4       1                               0D     54
     504     141                                                00010001D     55
     504                       2       1                               0D     56
     406     143                                                00000000D     57
     406                       1      15                               0D     58
     314     144                                                00000200D     59
     314                       2       0                               0D     60
186,3,1,0,0,1,57;                                                      1P      1
514,5,5,1,7,1,9,1,11,1,13,1;                                           3P      2
510,43,1,1,15;                                                         5P      3
510,45,1,1,17;                                                         7P      4
510,47,1,1,19;                                                         9P      5
510,49,1,1,21;                                                        11P      6
510,51,1,1,23;                                                        13P      7
508,1,0,55,1,1,0;                                                     15P      8
508,1,0,55,2,1,0;                                                     17P      9
508,6,0,55,3,0,0,0,55,4,0,0,0,55,5,1,0,0,55,6,1,0,0,55,7,1,0,0,       19P     10
55,5,0,0;                                                             19P     11
508,5,0,55,1,0,0,0,55,8,1,0,0,55,3,1,0,0,55,4,1,0,0,55,8,0,0;         21P     12
508,5,0,55,7,0,0,0,55,9,1,0,0,55,2,0,0,0,55,9,0,0,0,55,6,0,0;         23P     13
126,8,2,0,1,0,0,-3.1415926535898,-3.1415926535898,                    25P     14
-3.1415926535898,-1.5707963267949,-1.5707963267949,                   25P     15
-2.22044604925031D-15,-2.22044604925031D-15,1.57079632679489,         25P     16
1.57079632679489,3.14159265358979,3.14159265358979,                   25P     17
3.14159265358979,1.,0.707106781186548,1.,0.707106781186546,1.,        25P     18
0.707106781186549,1.,0.707106781186546,1.,-14.75,-0.75,-11.25,        25P     19
-15.5,-0.750000000000001,-11.25,-15.5,-1.61941028196971D-15,          25P     20
-11.25,-15.5,0.749999999999998,-11.25,-14.75,0.75,-11.25,-14.,        25P     21
0.750000000000002,-11.25,-14.,1.71125879190576D-15,-11.25,-14.,       25P     22
-0.749999999999998,-11.25,-14.75,-0.75,-11.25,-3.1415926535898,       25P     23
3.14159265358979,0.,0.,0.;                                            25P     24
126,8,2,0,1,0,0,-3.14159265358979,-3.14159265358979,                  27P     25
-3.14159265358979,-1.5707963267949,-1.5707963267949,0.,0.,            27P     26
1.5707963267949,1.5707963267949,3.14159265358979,                     27P     27
3.14159265358979,3.14159265358979,1.,0.707106781186547,1.,            27P     28
0.707106781186547,1.,0.707106781186547,1.,0.707106781186547,1.,       27P     29
9.75,-0.75,-9.18485099360515D-17,9.75,-0.75,-0.75,9.75,               27P     30
4.59242549680257D-17,-0.75,9.75,0.75,-0.75,9.75,0.75,0.,9.75,         27P     31
0.75,0.75,9.75,4.59242549680257D-17,0.75,9.75,-0.75,0.75,9.75,        27P     32
-0.75,9.18485099360515D-17,-3.14159265358979,3.14159265358979,        27P     33
0.,0.,0.;                                                             27P     34
126,6,2,0,0,0,0,-3.14159265358979,-3.14159265358979,                  29P     35
-3.14159265358979,-1.5707963267949,-1.5707963267949,0.,0.,            29P     36
1.5707963267949,1.5707963267949,1.5707963267949,1.,                   29P     37
0.70710678118655,1.,0.707106781186544,1.,0.707106781186544,1.,        29P     38
-14.75,-0.75,-2.49999999999998,-15.5,-0.75,-2.49999999999998,         29P     39
-15.5,4.59242549680257D-17,-2.49999999999998,-15.5,0.75,              29P     40
-2.49999999999998,-14.75,0.75,-2.49999999999998,-14.,0.75,            29P     41
-2.49999999999998,-14.,4.59242549680257D-17,-2.49999999999998,        29P     42
-3.14159265358979,1.5707963267949,0.,0.,0.;                           29P     43
126,2,2,0,0,0,0,1.5707963267949,1.5707963267949,1.5707963267949,      31P     44
3.14159265358979,3.14159265358979,3.14159265358979,1.,                31P     45
0.70710678118655,1.,-14.,4.59242549680257D-17,-2.49999999999998,      31P     46
-14.,-0.75,-2.49999999999998,-14.75,-0.75,-2.49999999999998,          31P     47
1.5707963267949,3.14159265358979,0.,0.,0.;                            31P     48
126,2,2,0,0,0,0,1.5707963267949,1.5707963267949,1.5707963267949,      33P     49
3.14159265358979,3.14159265358979,3.14159265358979,1.,                33P     50
0.707106781186548,1.,-14.,9.18485099360515D-17,                       33P     51
-2.49999999999998,-14.,9.18485099360515D-17,-0.750000000000001,       33P     52
-12.25,9.18485099360515D-17,-0.75,1.5707963267949,                    33P     53
3.14159265358979,0.,0.,0.;                                            33P     54
126,2,2,0,0,0,0,1.5707963267949,1.5707963267949,1.5707963267949,      35P     55
3.14159265358979,3.14159265358979,3.14159265358979,1.,                35P     56
0.707106781186547,1.,-12.25,4.59242549680257D-17,-0.75,-12.25,        35P     57
-0.75,-0.75,-12.25,-0.75,-9.18485099360515D-17,1.5707963267949,       35P     58
3.14159265358979,0.,0.,0.;                                            35P     59
126,6,2,0,0,0,0,-3.14159265358979,-3.14159265358979,                  37P     60
-3.14159265358979,-1.5707963267949,-1.5707963267949,0.,0.,            37P     61
1.5707963267949,1.5707963267949,1.5707963267949,1.,                   37P     62
0.707106781186547,1.,0.707106781186547,1.,0.707106781186547,1.,       37P     63
-12.25,-0.75,9.18485099360515D-17,-12.25,-0.75,0.75,-12.25,           37P     64
4.59242549680257D-17,0.75,-12.25,0.75,0.75,-12.25,0.75,0.,            37P     65
-12.25,0.75,-0.75,-12.25,4.59242549680257D-17,-0.75,                  37P     66
-3.14159265358979,1.5707963267949,0.,0.,0.;                           37P     67
126,1,1,0,0,1,0,-11.6666666666667,-11.6666666666667,                  39P     68
1.33491115346086D-16,1.33491115346086D-16,1.,1.,-14.75,-0.75,         39P     69
-11.25,-14.75,-0.75,-2.49999999999998,-11.6666666666667,              39P     70
1.33491115346086D-16,0.,0.,0.;                                        39P     71
126,1,1,0,0,1,0,-29.3333333333334,-29.3333333333334,0.,0.,1.,1.,      41P     72
-12.25,-0.75,0.,9.75,-0.75,0.,-29.3333333333334,0.,0.,0.,0.;          41P     73
128,1,1,1,1,0,0,1,0,0,-0.751,-0.751,0.751,0.751,-0.751,-0.751,        43P     74
0.751,0.751,1.,1.,1.,1.,-13.999,0.751,-11.25,-13.999,-0.751,          43P     75
-11.25,-15.501,0.751,-11.25,-15.501,-0.751,-11.25,-0.751,0.751,       43P     76
-0.751,0.751;                                                         43P     77
128,1,1,1,1,0,0,1,0,0,-0.751,-0.751,0.751,0.751,-0.751,-0.751,        45P     78
0.751,0.751,1.,1.,1.,1.,9.75,-0.751,-0.751,9.75,0.751,-0.751,         45P     79
9.75,-0.751,0.751,9.75,0.751,0.751,-0.751,0.751,-0.751,0.751;         45P     80
128,8,2,2,2,1,0,0,1,0,-3.14159265358979,-3.14159265358979,            47P     81
-3.14159265358979,-1.5707963267949,-1.5707963267949,0.,0.,            47P     82
1.5707963267949,1.5707963267949,3.14159265358979,                     47P     83
3.14159265358979,3.14159265358979,-3.14159265358979,                  47P     84
-3.14159265358979,-3.14159265358979,-1.5707963267949,                 47P     85
-1.5707963267949,-1.5707963267949,1.,0.707106781186547,1.,            47P     86
0.707106781186547,1.,0.707106781186547,1.,0.707106781186547,1.,       47P     87
0.707106781186548,0.5,0.707106781186548,0.499999999999999,            47P     88
0.707106781186548,0.499999999999999,0.707106781186548,0.5,            47P     89
0.707106781186548,1.,0.707106781186547,1.,0.707106781186547,1.,       47P     90
0.707106781186547,1.,0.707106781186547,1.,-12.25,                     47P     91
-9.18485099360515D-17,-0.75,-12.25,-0.75,-0.75,-12.25,-0.75,0.,       47P     92
-12.25,-0.75,0.75,-12.25,0.,0.75,-12.25,0.75,0.75,-12.25,0.75,        47P     93
0.,-12.25,0.75,-0.75,-12.25,9.18485099360515D-17,-0.75,-14.,          47P     94
-9.18485099360515D-17,-0.750000000000001,-14.,-0.75,                  47P     95
-0.750000000000001,-14.75,-0.75,-8.88178419700125D-16,-15.5,          47P     96
-0.75,0.749999999999999,-15.5,0.,0.749999999999999,-15.5,0.75,        47P     97
0.749999999999999,-14.75,0.75,-8.88178419700125D-16,-14.,0.75,        47P     98
-0.750000000000001,-14.,9.18485099360515D-17,-0.750000000000001,      47P     99
-14.,-9.18485099360515D-17,-2.49999999999998,-14.,-0.75,              47P    100
-2.49999999999998,-14.75,-0.75,-2.49999999999998,-15.5,-0.75,         47P    101
-2.49999999999998,-15.5,0.,-2.49999999999998,-15.5,0.75,              47P    102
-2.49999999999998,-14.75,0.75,-2.49999999999998,-14.,0.75,            47P    103
-2.49999999999998,-14.,9.18485099360515D-17,-2.49999999999998,        47P    104
-3.14159265358979,3.14159265358979,-3.14159265358979,                 47P    105
-1.5707963267949;                                                     47P    106
128,1,8,1,2,0,1,0,0,1,-1.33491115346086D-16,                          49P    107
-1.33491115346086D-16,11.6666666666667,11.6666666666667,              49P    108
-3.14159265358979,-3.14159265358979,-3.14159265358979,                49P    109
-1.5707963267949,-1.5707963267949,0.,0.,1.5707963267949,              49P    110
1.5707963267949,3.14159265358979,3.14159265358979,                    49P    111
3.14159265358979,1.,1.,0.707106781186548,0.707106781186548,1.,        49P    112
1.,0.707106781186548,0.707106781186548,1.,1.,0.707106781186548,       49P    113
0.707106781186548,1.,1.,0.707106781186548,0.707106781186548,1.,       49P    114
1.,-14.75,-0.75,-11.25,-14.75,-0.75,-2.49999999999998,-15.5,          49P    115
-0.75,-11.25,-15.5,-0.75,-2.49999999999998,-15.5,0.,-11.25,           49P    116
-15.5,0.,-2.49999999999998,-15.5,0.75,-11.25,-15.5,0.75,              49P    117
-2.49999999999998,-14.75,0.75,-11.25,-14.75,0.75,                     49P    118
-2.49999999999998,-14.,0.75,-11.25,-14.,0.75,-2.49999999999998,       49P    119
-14.,0.,-11.25,-14.,0.,-2.49999999999998,-14.,-0.75,-11.25,-14.,      49P    120
-0.75,-2.49999999999998,-14.75,-0.75,-11.25,-14.75,-0.75,             49P    121
-2.49999999999998,-1.33491115346086D-16,11.6666666666667,             49P    122
-3.14159265358979,3.14159265358979;                                   49P    123
128,1,8,1,2,0,1,0,0,1,0.,0.,29.3333333333334,29.3333333333334,        51P    124
-3.14159265358979,-3.14159265358979,-3.14159265358979,                51P    125
-1.5707963267949,-1.5707963267949,0.,0.,1.5707963267949,              51P    126
1.5707963267949,3.14159265358979,3.14159265358979,                    51P    127
3.14159265358979,1.,1.,0.707106781186548,0.707106781186548,1.,        51P    128
1.,0.707106781186548,0.707106781186548,1.,1.,0.707106781186548,       51P    129
0.707106781186548,1.,1.,0.707106781186548,0.707106781186548,1.,       51P    130
1.,-12.25,-0.75,0.,9.75,-0.75,0.,-12.25,-0.75,0.75,9.75,-0.75,        51P    131
0.75,-12.25,0.,0.75,9.75,0.,0.75,-12.25,0.75,0.75,9.75,0.75,          51P    132
0.75,-12.25,0.75,0.,9.75,0.75,0.,-12.25,0.75,-0.75,9.75,0.75,         51P    133
-0.75,-12.25,0.,-0.75,9.75,0.,-0.75,-12.25,-0.75,-0.75,9.75,          51P    134
-0.75,-0.75,-12.25,-0.75,0.,9.75,-0.75,0.,0.,29.3333333333334,        51P    135
-3.14159265358979,3.14159265358979;                                   51P    136
502,6,-14.75,-0.75,-11.25,9.75,-0.75,-9.18485099360515D-17,           53P    137
-14.75,-0.75,-2.49999999999998,-14.,9.18485099360515D-17,             53P    138
-2.49999999999998,-12.25,9.18485099360515D-17,-0.75,-12.25,           53P    139
-0.75,-9.18485099360515D-17;                                          53P    140
504,9,25,53,1,53,1,27,53,2,53,2,29,53,3,53,4,31,53,4,53,3,33,53,      55P    141
4,53,5,35,53,5,53,6,37,53,6,53,5,39,53,1,53,3,41,53,6,53,2;           55P    142
406,1,8HKörper2;                                                     57P    143
314,79.6078431372549,79.6078431372549,79.6078431372549,21HEdelst      59P    144
ahl - satiniert;                                                      59P    145
S      1G      3D     60P    145                                        T      1
